<svg width="73" height="72" viewBox="0 0 73 72" fill="none" xmlns="http://www.w3.org/2000/svg">
<path fill-rule="evenodd" clip-rule="evenodd" d="M36.6182 14.4C38.0503 14.4 39.4238 13.8311 40.4365 12.8184C41.4492 11.8057 42.0182 10.4322 42.0182 9C42.0182 7.56783 41.4492 6.19432 40.4365 5.18162C39.4238 4.16893 38.0503 3.6 36.6182 3.6C35.186 3.6 33.8125 4.16893 32.7998 5.18162C31.7871 6.19432 31.2182 7.56783 31.2182 9C31.2182 10.4322 31.7871 11.8057 32.7998 12.8184C33.8125 13.8311 35.186 14.4 36.6182 14.4ZM36.6182 18C39.0051 18 41.2943 17.0518 42.9821 15.364C44.67 13.6761 45.6182 11.3869 45.6182 9C45.6182 6.61305 44.67 4.32387 42.9821 2.63604C41.2943 0.948211 39.0051 0 36.6182 0C34.2312 0 31.942 0.948211 30.2542 2.63604C28.5664 4.32387 27.6182 6.61305 27.6182 9C27.6182 11.3869 28.5664 13.6761 30.2542 15.364C31.942 17.0518 34.2312 18 36.6182 18Z" fill="#85BEDB"/>
<path fill-rule="evenodd" clip-rule="evenodd" d="M24.6921 25.7652C25.5156 25.922 26.2587 26.3613 26.793 27.0073C27.3273 27.6533 27.6194 28.4656 27.6189 29.304V66.6C27.6189 67.0774 27.8085 67.5352 28.1461 67.8728C28.4836 68.2103 28.9415 68.4 29.4189 68.4H29.5755C30.0248 68.4 30.4579 68.2319 30.7897 67.9288C31.1214 67.6257 31.3278 67.2095 31.3683 66.762L33.0189 48.6C33.0189 47.6452 33.3981 46.7295 34.0733 46.0544C34.7484 45.3793 35.6641 45 36.6189 45C37.5736 45 38.4893 45.3793 39.1644 46.0544C39.8396 46.7295 40.2189 47.6452 40.2189 48.6L41.8695 66.762C41.9099 67.2095 42.1163 67.6257 42.448 67.9288C42.7798 68.2319 43.2129 68.4 43.6623 68.4H43.8189C44.2962 68.4 44.7541 68.2103 45.0917 67.8728C45.4292 67.5352 45.6189 67.0774 45.6189 66.6V29.3706C45.6187 28.5325 45.911 27.7207 46.4453 27.075C46.9796 26.4293 47.7224 25.9903 48.5457 25.8336C51.7065 25.2324 55.0491 24.399 58.7229 23.328C58.9498 23.2618 59.1614 23.1516 59.3458 23.0036C59.5301 22.8556 59.6835 22.6727 59.7971 22.4655C59.9108 22.2582 59.9825 22.0306 60.0082 21.7956C60.0339 21.5606 60.013 21.3229 59.9469 21.096C59.8807 20.8691 59.7704 20.6574 59.6225 20.4731C59.4745 20.2887 59.2916 20.1354 59.0844 20.0217C58.8771 19.9081 58.6495 19.8363 58.4145 19.8106C58.1795 19.7849 57.9418 19.8058 57.7149 19.872C49.3737 22.302 42.9729 23.4288 36.6261 23.4C30.2721 23.3712 23.8641 22.1868 15.4995 19.8666C15.2701 19.7982 15.0294 19.7762 14.7915 19.802C14.5535 19.8277 14.3231 19.9006 14.1137 20.0165C13.9043 20.1324 13.7201 20.2888 13.5719 20.4767C13.4236 20.6646 13.3144 20.8802 13.2505 21.1108C13.1866 21.3415 13.1693 21.5825 13.1996 21.8199C13.23 22.0573 13.3074 22.2863 13.4273 22.4934C13.5472 22.7005 13.7073 22.8816 13.898 23.0262C14.0888 23.1707 14.3064 23.2758 14.5383 23.3352C18.1977 24.3504 21.5331 25.164 24.6921 25.7652ZM34.7793 68.0454C34.4633 69.1827 33.7834 70.1852 32.8436 70.8994C31.9038 71.6136 30.7558 72.0002 29.5755 72H29.4189C27.9867 72 26.6132 71.431 25.6005 70.4183C24.5878 69.4057 24.0189 68.0321 24.0189 66.6V29.304C20.7321 28.6776 17.2959 27.8352 13.5753 26.802C12.8777 26.6255 12.2225 26.3113 11.6481 25.878C11.0737 25.4447 10.5916 24.901 10.2303 24.2788C9.86896 23.6566 9.63562 22.9684 9.54398 22.2548C9.45234 21.5411 9.50424 20.8163 9.69664 20.123C9.88904 19.4297 10.2181 18.7818 10.6644 18.2174C11.1107 17.6531 11.6653 17.1836 12.2956 16.8366C12.9259 16.4895 13.6192 16.272 14.3347 16.1967C15.0503 16.1213 15.7737 16.1898 16.4625 16.398C24.6885 18.6786 30.7455 19.773 36.6423 19.8C42.5211 19.8252 48.5547 18.792 56.7087 16.416C57.3927 16.2065 58.1115 16.1351 58.8233 16.2058C59.5351 16.2765 60.2258 16.4879 60.8553 16.8278C61.4847 17.1676 62.0404 17.6292 62.49 18.1856C62.9395 18.742 63.2741 19.3822 63.4742 20.069C63.6742 20.7558 63.7359 21.4755 63.6555 22.1863C63.575 22.8971 63.3542 23.5849 63.0058 24.2096C62.6573 24.8344 62.1882 25.3837 61.6257 25.8256C61.0632 26.2675 60.4185 26.5933 59.7291 26.784C55.9779 27.8784 52.5219 28.7424 49.2189 29.3706V66.6C49.2189 68.0321 48.6499 69.4057 47.6372 70.4183C46.6245 71.431 45.251 72 43.8189 72H43.6623C42.3147 72.0001 41.0158 71.4965 40.0207 70.5879C39.0255 69.6793 38.406 68.4315 38.2839 67.0896L36.6333 48.9276C36.6238 48.8216 36.6189 48.7153 36.6189 48.609C36.6189 48.7146 36.6141 48.8202 36.6045 48.9258L34.9521 67.0878C34.9234 67.4115 34.8656 67.732 34.7793 68.0454Z" fill="#85BEDB"/>
</svg>
