<svg width="63" height="72" viewBox="0 0 63 72" fill="none" xmlns="http://www.w3.org/2000/svg">
<path d="M53.5457 10.4735C51.9208 10.4716 50.3299 10.9387 48.9639 11.8185V8.50985C48.9641 6.40998 48.1878 4.3842 46.7844 2.82218C45.381 1.26017 43.4496 0.272251 41.3617 0.0484743C39.2738 -0.175303 37.1769 0.380864 35.4743 1.60999C33.7717 2.83911 32.5838 4.65438 32.139 6.7066C30.8598 5.83936 29.3686 5.33688 27.8254 5.25311C26.2822 5.16933 24.7454 5.50741 23.3798 6.23106C22.0143 6.95472 20.8716 8.03661 20.0744 9.36061C19.2773 10.6846 18.8558 12.2007 18.8552 13.7461V36.9822L16.3908 33.0223C15.2681 31.0646 13.4137 29.633 11.2355 29.0426C9.05729 28.4522 6.73376 28.7512 4.77605 29.874C2.81835 30.9967 1.38682 32.8511 0.796393 35.0293C0.205967 37.2075 0.505008 39.531 1.62773 41.4887C11.904 63.1637 17.713 72 33.9095 72C41.3714 71.9913 48.5252 69.0233 53.8016 63.7469C59.0779 58.4706 62.046 51.3168 62.0546 43.8549V18.9824C62.0546 17.865 61.8346 16.7586 61.4069 15.7262C60.9793 14.6938 60.3526 13.7558 59.5624 12.9657C58.7723 12.1756 57.8343 11.5488 56.8019 11.1212C55.7695 10.6936 54.6631 10.4735 53.5457 10.4735ZM58.1274 43.8549C58.1196 50.2755 55.5656 56.4309 51.0255 60.9709C46.4855 65.5109 40.3301 68.065 33.9095 68.0728C27.0369 68.0728 22.6155 66.4201 18.6097 62.3619C14.2112 57.9274 10.1956 50.4003 5.14259 39.7411L5.06732 39.6004C4.45974 38.548 4.29512 37.2973 4.60967 36.1235C4.92421 34.9497 5.69216 33.9489 6.74458 33.3414C7.79699 32.7338 9.04766 32.5692 10.2215 32.8837C11.3952 33.1983 12.396 33.9662 13.0036 35.0186L13.0363 35.0743L19.1497 44.8923C19.3748 45.2555 19.7122 45.5354 20.1107 45.6894C20.5092 45.8435 20.9471 45.8634 21.358 45.7461C21.7688 45.6287 22.1302 45.3806 22.3873 45.0393C22.6443 44.698 22.783 44.2822 22.7824 43.8549V13.7461C22.7824 12.531 23.2651 11.3656 24.1243 10.5064C24.9836 9.6471 26.149 9.16438 27.3641 9.16438C28.5793 9.16438 29.7447 9.6471 30.6039 10.5064C31.4632 11.3656 31.9459 12.531 31.9459 13.7461V33.3823C31.9459 33.9031 32.1528 34.4025 32.521 34.7708C32.8893 35.139 33.3887 35.3459 33.9095 35.3459C34.4303 35.3459 34.9298 35.139 35.298 34.7708C35.6663 34.4025 35.8731 33.9031 35.8731 33.3823V8.50985C35.8731 7.29469 36.3559 6.1293 37.2151 5.27005C38.0744 4.4108 39.2397 3.92808 40.4549 3.92808C41.6701 3.92808 42.8354 4.4108 43.6947 5.27005C44.5539 6.1293 45.0367 7.29469 45.0367 8.50985V33.3823C45.0367 33.9031 45.2435 34.4025 45.6118 34.7708C45.98 35.139 46.4795 35.3459 47.0003 35.3459C47.5211 35.3459 48.0205 35.139 48.3888 34.7708C48.757 34.4025 48.9639 33.9031 48.9639 33.3823V18.9824C48.9639 17.7673 49.4466 16.6019 50.3059 15.7427C51.1651 14.8834 52.3305 14.4007 53.5457 14.4007C54.7608 14.4007 55.9262 14.8834 56.7854 15.7427C57.6447 16.6019 58.1274 17.7673 58.1274 18.9824V43.8549Z" fill="#85BEDB"/>
</svg>
