<svg width="73" height="72" viewBox="0 0 73 72" fill="none" xmlns="http://www.w3.org/2000/svg">
<path d="M36.5 40.5C34.275 40.5 32.0999 39.8402 30.2498 38.604C28.3998 37.3679 26.9578 35.6109 26.1064 33.5552C25.2549 31.4995 25.0321 29.2375 25.4662 27.0552C25.9003 24.873 26.9717 22.8684 28.5451 21.2951C30.1184 19.7217 32.123 18.6503 34.3052 18.2162C36.4875 17.7821 38.7495 18.0049 40.8052 18.8564C42.8609 19.7078 44.6179 21.1498 45.854 22.9998C47.0902 24.8499 47.75 27.025 47.75 29.25C47.7464 32.2326 46.56 35.092 44.451 37.201C42.342 39.31 39.4826 40.4964 36.5 40.5ZM36.5 22.5C35.165 22.5 33.8599 22.8959 32.7499 23.6376C31.6399 24.3793 30.7747 25.4335 30.2638 26.6669C29.7529 27.9003 29.6193 29.2575 29.8797 30.5669C30.1402 31.8762 30.783 33.079 31.727 34.023C32.671 34.967 33.8738 35.6099 35.1831 35.8703C36.4925 36.1308 37.8497 35.9971 39.0831 35.4862C40.3165 34.9753 41.3707 34.1101 42.1124 33.0001C42.8541 31.8901 43.25 30.585 43.25 29.25C43.2482 27.4603 42.5365 25.7445 41.271 24.479C40.0055 23.2135 38.2897 22.5018 36.5 22.5Z" fill="#85BEDB"/>
<path d="M36.5 67.5L17.519 45.1147C17.2553 44.7786 16.9943 44.4404 16.736 44.1C13.4954 39.8281 11.744 34.612 11.75 29.25C11.75 22.6859 14.3576 16.3906 18.9991 11.7491C23.6406 7.10758 29.9359 4.5 36.5 4.5C43.0641 4.5 49.3594 7.10758 54.0009 11.7491C58.6424 16.3906 61.25 22.6859 61.25 29.25C61.2552 34.6094 59.5047 39.8229 56.2663 44.0933L56.264 44.1C56.264 44.1 55.589 44.9865 55.4878 45.1058L36.5 67.5ZM20.3293 41.3888C20.3293 41.3888 20.8535 42.0817 20.9728 42.2302L36.5 60.543L52.0475 42.2055C52.1465 42.0817 52.673 41.3842 52.6753 41.382C55.324 37.8926 56.7554 33.6308 56.75 29.25C56.75 23.8794 54.6165 18.7287 50.8189 14.9311C47.0213 11.1335 41.8706 9 36.5 9C31.1294 9 25.9787 11.1335 22.1811 14.9311C18.3835 18.7287 16.25 23.8794 16.25 29.25C16.2445 33.6337 17.6775 37.8981 20.3293 41.3888Z" fill="#85BEDB"/>
</svg>
