<svg width="73" height="72" viewBox="0 0 73 72" fill="none" xmlns="http://www.w3.org/2000/svg">
<path d="M36.5 17.25C38.7734 17.25 40.9648 17.543 43.0742 18.1289C45.1836 18.7148 47.1523 19.5469 48.9805 20.625C50.8086 21.7031 52.4844 22.9922 54.0078 24.4922C55.5312 25.9922 56.8203 27.6562 57.875 29.4844C58.9297 31.3125 59.7617 33.293 60.3711 35.4258C60.9805 37.5586 61.2734 39.75 61.25 42C61.25 44.2734 60.957 46.4648 60.3711 48.5742C59.7852 50.6836 58.9531 52.6523 57.875 54.4805C56.7969 56.3086 55.5078 57.9844 54.0078 59.5078C52.5078 61.0312 50.8438 62.3203 49.0156 63.375C47.1875 64.4297 45.207 65.2617 43.0742 65.8711C40.9414 66.4805 38.75 66.7734 36.5 66.75C34.2266 66.75 32.0352 66.457 29.9258 65.8711C27.8164 65.2852 25.8477 64.4531 24.0195 63.375C22.1914 62.2969 20.5156 61.0078 18.9922 59.5078C17.4688 58.0078 16.1797 56.3438 15.125 54.5156C14.0703 52.6875 13.2383 50.707 12.6289 48.5742C12.0195 46.4414 11.7266 44.25 11.75 42C11.75 39.7266 12.043 37.5352 12.6289 35.4258C13.2148 33.3164 14.0469 31.3477 15.125 29.5195C16.2031 27.6914 17.4922 26.0156 18.9922 24.4922C20.4922 22.9688 22.1562 21.6797 23.9844 20.625C25.8125 19.5703 27.793 18.7383 29.9258 18.1289C32.0586 17.5195 34.25 17.2266 36.5 17.25ZM36.5 62.25C39.2891 62.25 41.9141 61.7227 44.375 60.668C46.8359 59.6133 48.9805 58.1602 50.8086 56.3086C52.6367 54.457 54.0781 52.3125 55.1328 49.875C56.1875 47.4375 56.7266 44.8125 56.75 42C56.75 39.2109 56.2227 36.5859 55.168 34.125C54.1133 31.6641 52.6602 29.5195 50.8086 27.6914C48.957 25.8633 46.8125 24.4219 44.375 23.3672C41.9375 22.3125 39.3125 21.7734 36.5 21.75C33.7109 21.75 31.0859 22.2773 28.625 23.332C26.1641 24.3867 24.0195 25.8398 22.1914 27.6914C20.3633 29.543 18.9219 31.6875 17.8672 34.125C16.8125 36.5625 16.2734 39.1875 16.25 42C16.25 44.7891 16.7773 47.4141 17.832 49.875C18.8867 52.3359 20.3398 54.4805 22.1914 56.3086C24.043 58.1367 26.1875 59.5781 28.625 60.6328C31.0625 61.6875 33.6875 62.2266 36.5 62.25ZM36.5 42H45.5V46.5H32V28.5H36.5V42ZM58.7891 19.7109C55.7891 16.7344 52.3789 14.4609 48.5586 12.8906C44.7383 11.3203 40.7188 10.5234 36.5 10.5C32.2812 10.5 28.2617 11.2852 24.4414 12.8555C20.6211 14.4258 17.2109 16.7109 14.2109 19.7109L11.0469 16.5469C12.7344 14.8594 14.5625 13.3594 16.5312 12.0469C18.5 10.7344 20.5625 9.63281 22.7188 8.74219C24.875 7.85156 27.1133 7.17188 29.4336 6.70312C31.7539 6.23438 34.1094 6 36.5 6C38.8906 6 41.2344 6.22266 43.5312 6.66797C45.8281 7.11328 48.0664 7.79297 50.2461 8.70703C52.4258 9.62109 54.5 10.7344 56.4688 12.0469C58.4375 13.3594 60.2656 14.8594 61.9531 16.5469L58.7891 19.7109Z" fill="#85BEDB"/>
</svg>
