<svg width="141" height="258" viewBox="0 0 141 258" fill="none" xmlns="http://www.w3.org/2000/svg">
<path d="M115.269 196.528H22.053C18.9545 196.521 15.9849 195.285 13.794 193.09C11.603 190.895 10.3692 187.92 10.3624 184.816V73.2226C10.3692 70.1186 11.603 67.1437 13.794 64.9489C15.9849 62.754 18.9545 61.518 22.053 61.5111H115.269C118.368 61.518 121.337 62.754 123.528 64.9489C125.719 67.1437 126.953 70.1186 126.96 73.2226V184.816C126.953 187.92 125.719 190.895 123.528 193.09C121.337 195.285 118.368 196.521 115.269 196.528ZM22.053 66.3608C20.2352 66.3608 18.4916 67.0833 17.2051 68.3698C15.9185 69.6562 15.194 71.4015 15.1905 73.2226V184.816C15.1905 186.64 15.9136 188.388 17.2005 189.678C18.4875 190.967 20.233 191.691 22.053 191.691H115.269C117.089 191.691 118.835 190.967 120.122 189.678C121.409 188.388 122.132 186.64 122.132 184.816V73.2226C122.128 71.4015 121.404 69.6562 120.117 68.3698C118.83 67.0833 117.087 66.3608 115.269 66.3608H22.053ZM138.483 80.7421C138.205 80.5874 137.879 80.5415 137.569 80.6131C137.486 80.6591 137.393 80.6814 137.298 80.6776L136.848 80.8066V75.6474C136.843 71.522 135.764 67.4692 133.719 63.8888C131.673 60.3083 128.731 57.3239 125.183 55.2298L124.192 54.6365C121.833 53.4437 119.306 52.6215 116.698 52.1988C111.361 47.0562 108.063 40.1514 107.415 32.7614C107.158 29.9238 107.415 21.3595 107.415 21.3595C107.463 16.8408 106.065 12.4256 103.426 8.76066C100.787 5.09572 97.0458 2.37374 92.7504 0.993515C90.6707 0.322563 88.4977 -0.0126752 86.3129 0.000366343H50.8547C48.0756 0.0120407 45.3263 0.575226 42.7656 1.65739C40.205 2.73956 37.8837 4.31926 35.936 6.30524C33.9883 8.29122 32.4526 10.6441 31.4178 13.228C30.3829 15.812 29.8694 18.5757 29.9068 21.3595C29.9068 21.3595 30.2416 29.9238 29.9841 32.7614C29.2692 40.1329 25.9821 47.0157 20.7011 52.1988C18.058 52.6125 15.5005 53.4578 13.1305 54.701L12.0876 55.2943C8.57076 57.3879 5.65503 60.3582 3.62436 63.916C1.59369 67.4737 0.5173 71.4976 0.5 75.5958V182.443C0.505348 186.659 1.63785 190.797 3.77979 194.426C5.92173 198.055 8.99492 201.044 12.6799 203.08L13.1949 203.351C15.5289 204.612 18.0723 205.438 20.7011 205.789C25.9555 211.003 29.2138 217.901 29.9068 225.278C30.1643 228.115 29.8296 236.615 29.8296 236.615C29.7817 239.409 30.2904 242.185 31.326 244.78C32.3616 247.376 33.9033 249.738 35.861 251.729C37.8187 253.72 40.153 255.3 42.7275 256.377C45.3019 257.454 48.0649 258.006 50.8547 258H86.4416C89.232 257.992 91.993 257.429 94.5652 256.346C97.1373 255.262 99.4695 253.678 101.427 251.686C103.384 249.694 104.928 247.333 105.97 244.739C107.011 242.146 107.528 239.371 107.492 236.576C107.492 236.576 107.171 228.076 107.492 225.239C108.148 217.832 111.444 210.91 116.775 205.737C119.42 205.368 121.982 204.543 124.346 203.299L124.797 203.029C128.47 200.984 131.53 197.992 133.66 194.363C135.79 190.735 136.913 186.601 136.912 182.392V174.937C137.41 174.866 137.871 174.635 138.226 174.279C138.581 173.924 138.812 173.462 138.882 172.963V144.149C138.814 143.648 138.585 143.183 138.23 142.825C137.874 142.466 137.412 142.234 136.912 142.163V108.383L137.363 108.512H137.633C137.928 108.624 138.253 108.624 138.547 108.512C139.835 108.06 140.852 106.074 140.852 103.443V85.8111C140.788 83.1154 139.796 81.2065 138.483 80.7421ZM132.432 182.443C132.423 185.836 131.518 189.167 129.809 192.096C128.099 195.025 125.646 197.449 122.698 199.12L122.235 199.378C121.445 199.765 120.655 200.118 119.866 200.436C117.765 201.239 115.534 201.641 113.286 201.623H24.0744C21.8291 201.613 19.6027 201.212 17.4952 200.436C16.6883 200.124 15.8976 199.771 15.1262 199.378L14.6627 199.12C11.7061 197.459 9.24545 195.038 7.53445 192.106C5.82345 189.175 4.92407 185.839 4.92905 182.443V75.5958C4.9346 72.3169 5.77751 69.094 7.37757 66.2336C8.97763 63.3732 11.2816 60.9705 14.0704 59.254L15.3579 58.5317C16.0789 58.1877 16.8042 57.8782 17.5338 57.603C19.6338 56.8 21.8653 56.3975 24.113 56.4164H113.325C115.551 56.4055 117.76 56.8079 119.84 57.603C120.495 57.8139 121.132 58.077 121.745 58.3898L122.737 58.9186C125.684 60.5902 128.138 63.0137 129.847 65.943C131.557 68.8722 132.462 72.2026 132.47 75.5958L132.432 182.443Z" fill="#85BEDB"/>
</svg>
