<svg width="91" height="22" viewBox="0 0 91 22" fill="none" xmlns="http://www.w3.org/2000/svg">
<path d="M16.4462 2.45588C12.738 1 8.5 1 8.5 1C8.5 1 4.26203 1 0.553801 2.45588C-1.03544 9.73529 0.553801 16.0441 8.5 18.4706C16.4462 16.0441 18.0354 9.73529 16.4462 2.45588Z" fill="white"/>
<path d="M8.50001 17.4437C2.3613 15.4273 0.00340331 10.6239 1.48616 3.15664C4.82516 1.98465 8.46187 1.97058 8.50001 1.97058C8.53762 1.97058 12.186 1.98999 15.5139 3.15664C16.9966 10.6239 14.6387 15.4273 8.50001 17.4437Z" fill="#FA450C"/>
<path d="M15.5139 3.15664C12.186 1.98999 8.53767 1.97058 8.50006 1.97058V17.4437C14.6388 15.4273 16.9967 10.6239 15.5139 3.15664Z" fill="#BB2D00"/>
<path d="M23.5098 10.4199C23.5098 11.1491 23.5977 11.7448 23.7734 12.207C23.9492 12.6693 24.1706 13.0306 24.4375 13.291C24.7109 13.5449 25.0072 13.7207 25.3262 13.8184C25.6452 13.9095 25.9479 13.9551 26.2344 13.9551C26.7031 13.9551 27.1426 13.8607 27.5527 13.6719C27.9629 13.4831 28.3242 13.2259 28.6367 12.9004V8.04688C28.5521 7.92969 28.4349 7.79622 28.2852 7.64648C28.1354 7.49674 27.9596 7.36003 27.7578 7.23633C27.5625 7.10612 27.3379 6.9987 27.084 6.91406C26.8301 6.82292 26.5534 6.77734 26.2539 6.77734C25.8047 6.77734 25.4076 6.86849 25.0625 7.05078C24.724 7.22656 24.4375 7.47396 24.2031 7.79297C23.9753 8.11198 23.8027 8.49609 23.6855 8.94531C23.5684 9.38802 23.5098 9.87956 23.5098 10.4199ZM26.0586 5.47852C26.4622 5.48503 26.8138 5.53711 27.1133 5.63477C27.4128 5.73242 27.6699 5.85612 27.8848 6.00586C28.0996 6.14909 28.2689 6.29232 28.3926 6.43555C28.5228 6.57878 28.6107 6.69271 28.6562 6.77734H28.6953L29.0078 5.72266H30.1504V15.5469C30.1504 16.263 30.0332 16.8848 29.7988 17.4121C29.5645 17.946 29.2357 18.3887 28.8125 18.7402C28.3893 19.0918 27.8783 19.3522 27.2793 19.5215C26.6868 19.6973 26.0293 19.7852 25.3066 19.7852C24.6947 19.7852 24.1478 19.7298 23.666 19.6191C23.1842 19.515 22.8066 19.388 22.5332 19.2383V17.959C22.7546 18.0501 22.9694 18.125 23.1777 18.1836C23.3861 18.2487 23.6009 18.3008 23.8223 18.3398C24.0436 18.3854 24.2682 18.418 24.4961 18.4375C24.7305 18.457 24.9876 18.4668 25.2676 18.4668C26.3548 18.4668 27.1882 18.2129 27.7676 17.7051C28.347 17.1973 28.6367 16.4225 28.6367 15.3809V14.1406H28.6074C28.2754 14.5052 27.888 14.7819 27.4453 14.9707C27.0091 15.153 26.5078 15.2441 25.9414 15.2441C25.681 15.2441 25.401 15.2148 25.1016 15.1562C24.8021 15.0977 24.5026 15 24.2031 14.8633C23.9036 14.7201 23.6172 14.5345 23.3438 14.3066C23.0703 14.0723 22.8294 13.7826 22.6211 13.4375C22.4128 13.0859 22.2435 12.6725 22.1133 12.1973C21.9896 11.722 21.9277 11.1719 21.9277 10.5469C21.9277 9.68099 22.0449 8.93229 22.2793 8.30078C22.5137 7.66276 22.8229 7.13542 23.207 6.71875C23.5911 6.30208 24.0306 5.99284 24.5254 5.79102C25.0202 5.58268 25.5312 5.47852 26.0586 5.47852ZM36.7715 15.2441C36.2897 15.2441 35.8568 15.1921 35.4727 15.0879C35.0885 14.9837 34.75 14.8372 34.457 14.6484C34.1706 14.4596 33.9264 14.235 33.7246 13.9746C33.5228 13.7077 33.3633 13.418 33.2461 13.1055C33.1549 12.8711 33.0898 12.6139 33.0508 12.334C33.0117 12.054 32.9922 11.748 32.9922 11.416V5.72266H34.5059V11.4062C34.5059 11.9206 34.5742 12.3503 34.7109 12.6953C34.8672 13.0859 35.1178 13.3952 35.4629 13.623C35.8145 13.8444 36.2604 13.9551 36.8008 13.9551C37.3737 13.9551 37.8327 13.8314 38.1777 13.584C38.5293 13.3366 38.7799 13.0046 38.9297 12.5879C39.0404 12.2689 39.0957 11.875 39.0957 11.4062V5.72266H40.6094V11.4258C40.6094 11.7383 40.5898 12.0312 40.5508 12.3047C40.5182 12.5716 40.4629 12.819 40.3848 13.0469C40.2676 13.3659 40.1048 13.6621 39.8965 13.9355C39.6947 14.2025 39.444 14.4336 39.1445 14.6289C38.8451 14.8242 38.4967 14.974 38.0996 15.0781C37.709 15.1888 37.2663 15.2441 36.7715 15.2441ZM48.8711 13.9746H48.832C48.7083 14.1309 48.5521 14.2871 48.3633 14.4434C48.1745 14.5931 47.9564 14.7298 47.709 14.8535C47.4616 14.9707 47.1914 15.0651 46.8984 15.1367C46.6055 15.2083 46.293 15.2441 45.9609 15.2441C45.5117 15.2441 45.0983 15.1758 44.7207 15.0391C44.3496 14.9089 44.0273 14.7168 43.7539 14.4629C43.487 14.2025 43.2786 13.8867 43.1289 13.5156C42.9792 13.1445 42.9043 12.7246 42.9043 12.2559C42.9043 11.7936 42.9857 11.3802 43.1484 11.0156C43.3177 10.651 43.5521 10.3418 43.8516 10.0879C44.151 9.83398 44.5091 9.63867 44.9258 9.50195C45.349 9.36523 45.8145 9.29688 46.3223 9.29688C46.804 9.30339 47.25 9.3457 47.6602 9.42383C48.0703 9.50195 48.4349 9.59961 48.7539 9.7168H48.793V9.07227C48.793 8.81836 48.7767 8.59375 48.7441 8.39844C48.7116 8.20312 48.6562 8.0306 48.5781 7.88086C48.4089 7.56836 48.1387 7.3112 47.7676 7.10938C47.3965 6.90104 46.8952 6.79688 46.2637 6.79688C45.7949 6.79688 45.3522 6.84245 44.9355 6.93359C44.5254 7.01823 44.1152 7.13867 43.7051 7.29492V6.02539C43.8613 5.94727 44.0436 5.87565 44.252 5.81055C44.4668 5.73893 44.6914 5.68034 44.9258 5.63477C45.1602 5.58268 45.4076 5.54362 45.668 5.51758C45.9284 5.49154 46.1888 5.47852 46.4492 5.47852C47.3867 5.47852 48.1517 5.64453 48.7441 5.97656C49.3431 6.30859 49.7728 6.74805 50.0332 7.29492C50.1309 7.50326 50.1992 7.73438 50.2383 7.98828C50.2839 8.23568 50.3066 8.50911 50.3066 8.80859V15H49.0371L48.8711 13.9746ZM48.793 10.9277C48.513 10.8496 48.181 10.7747 47.7969 10.7031C47.4128 10.6315 46.9896 10.5924 46.5273 10.5859C45.8828 10.5859 45.3783 10.7227 45.0137 10.9961C44.6491 11.2695 44.4668 11.6895 44.4668 12.2559C44.4668 12.5423 44.5124 12.793 44.6035 13.0078C44.6947 13.2227 44.8184 13.4017 44.9746 13.5449C45.1374 13.6816 45.3262 13.7858 45.541 13.8574C45.7624 13.9225 45.9967 13.9551 46.2441 13.9551C46.5697 13.9551 46.8724 13.9095 47.1523 13.8184C47.4323 13.7207 47.6797 13.6068 47.8945 13.4766C48.1159 13.3464 48.3014 13.2161 48.4512 13.0859C48.6074 12.9557 48.7214 12.8548 48.793 12.7832V10.9277ZM58.334 6.95312H58.2168C57.8587 6.95312 57.5072 6.98568 57.1621 7.05078C56.8171 7.11589 56.4915 7.2168 56.1855 7.35352C55.8861 7.48372 55.6126 7.64648 55.3652 7.8418C55.1243 8.03711 54.9225 8.26823 54.7598 8.53516V15H53.2461V5.72266H54.418L54.7109 7.19727H54.7402C54.89 6.95638 55.0723 6.73177 55.2871 6.52344C55.5085 6.3151 55.7559 6.13281 56.0293 5.97656C56.3027 5.82031 56.6022 5.69987 56.9277 5.61523C57.2533 5.52409 57.5951 5.47852 57.9531 5.47852C58.0182 5.47852 58.0833 5.48177 58.1484 5.48828C58.2201 5.48828 58.2819 5.49154 58.334 5.49805V6.95312ZM60.9902 10.459C60.9902 10.9928 61.0488 11.4779 61.166 11.9141C61.2897 12.3438 61.4655 12.7116 61.6934 13.0176C61.9212 13.3171 62.2012 13.5482 62.5332 13.7109C62.8652 13.8737 63.2461 13.9551 63.6758 13.9551C63.9948 13.9551 64.2845 13.9128 64.5449 13.8281C64.8053 13.7435 65.0365 13.6361 65.2383 13.5059C65.4466 13.3757 65.6224 13.2389 65.7656 13.0957C65.9154 12.946 66.0326 12.8092 66.1172 12.6855V7.83203C65.8047 7.51302 65.4434 7.25911 65.0332 7.07031C64.623 6.875 64.1803 6.77734 63.7051 6.77734C63.4186 6.77734 63.1159 6.83268 62.7969 6.94336C62.4844 7.04753 62.1914 7.23958 61.918 7.51953C61.651 7.79948 61.4297 8.17708 61.2539 8.65234C61.0781 9.12109 60.9902 9.72331 60.9902 10.459ZM59.4082 10.4785C59.4082 9.83398 59.4701 9.26432 59.5938 8.76953C59.724 8.26823 59.8932 7.83203 60.1016 7.46094C60.3099 7.08984 60.554 6.7806 60.834 6.5332C61.1139 6.2793 61.4036 6.07422 61.7031 5.91797C62.0026 5.76172 62.3053 5.65104 62.6113 5.58594C62.9238 5.51432 63.2168 5.47852 63.4902 5.47852C64.0566 5.47852 64.5482 5.57292 64.9648 5.76172C65.3815 5.95052 65.7559 6.22721 66.0879 6.5918H66.1172V0.859375H67.6309V15H66.4883L66.1758 13.9648H66.1367C66.0195 14.1146 65.8828 14.2676 65.7266 14.4238C65.5703 14.5736 65.3848 14.7103 65.1699 14.834C64.9616 14.9577 64.7174 15.0553 64.4375 15.127C64.1641 15.2051 63.8451 15.2441 63.4805 15.2441C62.9727 15.2441 62.4746 15.1595 61.9863 14.9902C61.498 14.8145 61.0618 14.5378 60.6777 14.1602C60.3001 13.776 59.9941 13.2845 59.7598 12.6855C59.5254 12.0801 59.4082 11.3444 59.4082 10.4785Z" fill="white"/>
<path d="M71.7129 10.4199C71.7129 11.1491 71.8008 11.7448 71.9766 12.207C72.1523 12.6693 72.3737 13.0306 72.6406 13.291C72.9141 13.5449 73.2103 13.7207 73.5293 13.8184C73.8483 13.9095 74.151 13.9551 74.4375 13.9551C74.9062 13.9551 75.3457 13.8607 75.7559 13.6719C76.166 13.4831 76.5273 13.2259 76.8398 12.9004V8.04688C76.7552 7.92969 76.638 7.79622 76.4883 7.64648C76.3385 7.49674 76.1628 7.36003 75.9609 7.23633C75.7656 7.10612 75.541 6.9987 75.2871 6.91406C75.0332 6.82292 74.7565 6.77734 74.457 6.77734C74.0078 6.77734 73.6107 6.86849 73.2656 7.05078C72.9271 7.22656 72.6406 7.47396 72.4062 7.79297C72.1784 8.11198 72.0059 8.49609 71.8887 8.94531C71.7715 9.38802 71.7129 9.87956 71.7129 10.4199ZM74.2617 5.47852C74.6654 5.48503 75.0169 5.53711 75.3164 5.63477C75.6159 5.73242 75.873 5.85612 76.0879 6.00586C76.3027 6.14909 76.472 6.29232 76.5957 6.43555C76.7259 6.57878 76.8138 6.69271 76.8594 6.77734H76.8984L77.2109 5.72266H78.3535V15.5469C78.3535 16.263 78.2363 16.8848 78.002 17.4121C77.7676 17.946 77.4388 18.3887 77.0156 18.7402C76.5924 19.0918 76.0814 19.3522 75.4824 19.5215C74.89 19.6973 74.2324 19.7852 73.5098 19.7852C72.8978 19.7852 72.3509 19.7298 71.8691 19.6191C71.3874 19.515 71.0098 19.388 70.7363 19.2383V17.959C70.9577 18.0501 71.1725 18.125 71.3809 18.1836C71.5892 18.2487 71.804 18.3008 72.0254 18.3398C72.2467 18.3854 72.4714 18.418 72.6992 18.4375C72.9336 18.457 73.1908 18.4668 73.4707 18.4668C74.5579 18.4668 75.3913 18.2129 75.9707 17.7051C76.5501 17.1973 76.8398 16.4225 76.8398 15.3809V14.1406H76.8105C76.4785 14.5052 76.0911 14.7819 75.6484 14.9707C75.2122 15.153 74.7109 15.2441 74.1445 15.2441C73.8841 15.2441 73.6042 15.2148 73.3047 15.1562C73.0052 15.0977 72.7057 15 72.4062 14.8633C72.1068 14.7201 71.8203 14.5345 71.5469 14.3066C71.2734 14.0723 71.0326 13.7826 70.8242 13.4375C70.6159 13.0859 70.4466 12.6725 70.3164 12.1973C70.1927 11.722 70.1309 11.1719 70.1309 10.5469C70.1309 9.68099 70.248 8.93229 70.4824 8.30078C70.7168 7.66276 71.026 7.13542 71.4102 6.71875C71.7943 6.30208 72.2337 5.99284 72.7285 5.79102C73.2233 5.58268 73.7344 5.47852 74.2617 5.47852ZM87.9824 10.3711C87.9824 9.79818 87.9108 9.29036 87.7676 8.84766C87.6309 8.39844 87.4355 8.02083 87.1816 7.71484C86.9342 7.40234 86.638 7.16797 86.293 7.01172C85.9479 6.84896 85.5703 6.76758 85.1602 6.76758C84.75 6.76758 84.3724 6.84896 84.0273 7.01172C83.6823 7.16797 83.3828 7.40234 83.1289 7.71484C82.8815 8.02083 82.6862 8.39844 82.543 8.84766C82.4062 9.29036 82.3379 9.79818 82.3379 10.3711C82.3379 10.9375 82.4062 11.4453 82.543 11.8945C82.6862 12.3372 82.8848 12.7116 83.1387 13.0176C83.3926 13.3236 83.6921 13.5579 84.0371 13.7207C84.3822 13.877 84.7598 13.9551 85.1699 13.9551C85.5801 13.9551 85.9544 13.877 86.293 13.7207C86.638 13.5579 86.9342 13.3236 87.1816 13.0176C87.4355 12.7116 87.6309 12.3372 87.7676 11.8945C87.9108 11.4453 87.9824 10.9375 87.9824 10.3711ZM89.5645 10.3711C89.5645 11.1003 89.4603 11.7643 89.252 12.3633C89.0436 12.9622 88.7474 13.4766 88.3633 13.9062C87.9857 14.3294 87.5267 14.6582 86.9863 14.8926C86.446 15.127 85.8405 15.2441 85.1699 15.2441C84.4798 15.2441 83.8613 15.127 83.3145 14.8926C82.7741 14.6582 82.3118 14.3294 81.9277 13.9062C81.5501 13.4766 81.2604 12.9622 81.0586 12.3633C80.8568 11.7643 80.7559 11.1003 80.7559 10.3711C80.7559 9.63542 80.86 8.9681 81.0684 8.36914C81.2767 7.77018 81.5697 7.25586 81.9473 6.82617C82.3314 6.39648 82.7936 6.06445 83.334 5.83008C83.8809 5.5957 84.4896 5.47852 85.1602 5.47852C85.8438 5.47852 86.459 5.5957 87.0059 5.83008C87.5527 6.06445 88.015 6.39648 88.3926 6.82617C88.7702 7.25586 89.0599 7.77018 89.2617 8.36914C89.4635 8.9681 89.5645 9.63542 89.5645 10.3711Z" fill="#FA450C"/>
</svg>
