<svg width="56" height="72" viewBox="0 0 56 72" fill="none" xmlns="http://www.w3.org/2000/svg">
<path d="M46.5931 45.2185C44.1481 45.2185 41.8033 44.2473 40.0744 42.5184C38.3455 40.7895 37.3742 38.4446 37.3742 35.9996C37.3742 33.5546 38.3455 31.2097 40.0744 29.4809C41.8033 27.752 44.1481 26.7807 46.5931 26.7807C49.0382 26.7807 51.383 27.752 53.1119 29.4809C54.8408 31.2097 55.8121 33.5546 55.8121 35.9996C55.8121 38.4446 54.8408 40.7895 53.1119 42.5184C51.383 44.2473 49.0382 45.2185 46.5931 45.2185ZM46.5931 31.3902C45.3706 31.3902 44.1982 31.8758 43.3338 32.7402C42.4693 33.6047 41.9837 34.7771 41.9837 35.9996C41.9837 37.2221 42.4693 38.3946 43.3338 39.259C44.1982 40.1234 45.3706 40.6091 46.5931 40.6091C47.8157 40.6091 48.9881 40.1234 49.8525 39.259C50.717 38.3946 51.2026 37.2221 51.2026 35.9996C51.2026 34.7771 50.717 33.6047 49.8525 32.7402C48.9881 31.8758 47.8157 31.3902 46.5931 31.3902ZM27.6944 18.4376C26.2508 18.4487 24.8249 18.1207 23.5313 17.48C22.2377 16.8392 21.1127 15.9037 20.2468 14.7486C19.381 13.5936 18.7984 12.2514 18.5461 10.83C18.2939 9.40866 18.3789 7.94793 18.7944 6.56546C19.2099 5.18299 19.9442 3.91741 20.9383 2.87064C21.9324 1.82388 23.1583 1.02518 24.5175 0.538871C25.8767 0.0525633 27.3311 -0.107762 28.7636 0.0708051C30.196 0.249372 31.5666 0.761842 32.7648 1.56694C34.3996 2.66546 35.6397 4.25872 36.3033 6.11325C36.9668 7.96778 37.0189 9.98608 36.452 11.8724C35.8851 13.7587 34.7289 15.4138 33.1529 16.5953C31.5769 17.7767 29.664 18.4224 27.6944 18.4376ZM27.6944 4.60919C26.4729 4.61224 25.3025 5.10002 24.4404 5.96537C23.5783 6.83072 23.0949 8.00289 23.0964 9.2244C23.098 10.4459 23.5843 11.6169 24.4485 12.4801C25.3128 13.3432 26.4844 13.8281 27.7059 13.8281C28.9274 13.8281 30.0989 13.3432 30.9632 12.4801C31.8275 11.6169 32.3138 10.4459 32.3153 9.2244C32.3169 8.00289 31.8335 6.83072 30.9714 5.96537C30.1093 5.10002 28.9389 4.61224 27.7174 4.60919H27.6944ZM27.7174 71.9995C25.2724 72.0249 22.9175 71.0779 21.1706 69.367C19.4238 67.656 18.4282 65.3212 18.4028 62.8762C18.3775 60.4312 19.3244 58.0763 21.0354 56.3294C22.7463 54.5826 25.0811 53.587 27.5261 53.5617C28.7368 53.5491 29.938 53.7751 31.0613 54.2268C32.1846 54.6785 33.208 55.347 34.0729 56.1942C34.9378 57.0414 35.6274 58.0506 36.1023 59.1643C36.5772 60.278 36.8281 61.4743 36.8407 62.6849C36.8532 63.8956 36.6272 65.0968 36.1755 66.2201C35.7238 67.3434 35.0553 68.3668 34.2082 69.2317C33.361 70.0966 32.3517 70.7863 31.2381 71.2612C30.1244 71.7361 28.9281 71.9869 27.7174 71.9995ZM27.7174 58.1711C26.5395 58.2865 25.4511 58.8506 24.6777 59.7465C23.9043 60.6424 23.5051 61.8015 23.5629 62.9836C23.6206 64.1657 24.1309 65.2804 24.988 66.0966C25.8451 66.9128 26.9833 67.3681 28.1668 67.3681C29.3504 67.3681 30.4886 66.9128 31.3457 66.0966C32.2028 65.2804 32.713 64.1657 32.7708 62.9836C32.8286 61.8015 32.4294 60.6424 31.656 59.7465C30.8826 58.8506 29.7942 58.2865 28.6163 58.1711C28.3097 58.1403 28.0009 58.1403 27.6944 58.1711H27.7174Z" fill="#85BEDB"/>
<path d="M32.7662 38.3046V33.6951H18.6152C18.2592 32.2975 17.5804 31.0029 16.6331 29.9153L21.957 21.9871L18.0851 19.4058L12.7612 27.334C11.7855 26.9797 10.7569 26.7927 9.71892 26.7809C7.27391 26.7809 4.92904 27.7522 3.20016 29.4811C1.47128 31.2099 0.5 33.5548 0.5 35.9998C0.5 38.4448 1.47128 40.7897 3.20016 42.5186C4.92904 44.2475 7.27391 45.2187 9.71892 45.2187C10.7569 45.207 11.7855 45.02 12.7612 44.6656L18.0851 52.5939L21.9109 50.0126L16.6331 42.0843C17.5804 40.9968 18.2592 39.7022 18.6152 38.3046H32.7662ZM5.10946 35.9998C5.10946 34.7773 5.5951 33.6049 6.45954 32.7404C7.32398 31.876 8.49642 31.3904 9.71892 31.3904C10.9414 31.3904 12.1139 31.876 12.9783 32.7404C13.8427 33.6049 14.3284 34.7773 14.3284 35.9998C14.3284 37.2223 13.8427 38.3948 12.9783 39.2592C12.1139 40.1236 10.9414 40.6093 9.71892 40.6093C8.49642 40.6093 7.32398 40.1236 6.45954 39.2592C5.5951 38.3948 5.10946 37.2223 5.10946 35.9998Z" fill="#85BEDB"/>
</svg>
