<svg width="59" height="76" viewBox="0 0 59 76" fill="none" xmlns="http://www.w3.org/2000/svg">
<path d="M15.1 48.8H22.3M15.1 59.6H22.3M36.7 48.8H43.9M36.7 59.6H43.9M31.3 2C43.18 2 49.12 2 52.81 5.69C56.5 9.38 56.5 15.32 56.5 27.2V48.8C56.5 60.68 56.5 66.62 52.81 70.31C49.12 74 43.18 74 31.3 74H27.7C15.82 74 9.88 74 6.19 70.31C2.5 66.62 2.5 60.68 2.5 48.8V27.2C2.5 15.32 2.5 9.38 6.19 5.69C9.88 2 15.82 2 27.7 2H31.3Z" stroke="#85BEDB" stroke-width="4" stroke-linecap="round" stroke-linejoin="round"/>
<path d="M40.2992 23.6C40.2992 26.4644 39.1614 29.2114 37.136 31.2368C35.1106 33.2622 32.3636 34.4 29.4992 34.4C26.6349 34.4 23.8879 33.2622 21.8625 31.2368C19.8371 29.2114 18.6992 26.4644 18.6992 23.6C18.6992 20.7357 19.8371 17.9887 21.8625 15.9633C23.8879 13.9379 26.6349 12.8 29.4992 12.8C32.3636 12.8 35.1106 13.9379 37.136 15.9633C39.1614 17.9887 40.2992 20.7357 40.2992 23.6Z" stroke="#85BEDB" stroke-width="4" stroke-linecap="round" stroke-linejoin="round"/>
</svg>
