<svg width="73" height="72" viewBox="0 0 73 72" fill="none" xmlns="http://www.w3.org/2000/svg">
<path d="M30.3171 63.1449C23.8595 61.0546 18.5356 57.232 14.3455 51.6771C10.1553 46.1221 8.06023 39.7411 8.06023 32.5341C8.06023 30.6545 8.21587 28.794 8.52714 26.9528C8.8384 25.1115 9.33524 23.3109 10.0176 21.5511L2.22395 26.0477L0.5 22.959L14.4712 14.878L22.5522 28.8312L19.4455 30.6952L14.0438 21.3571C13.2464 23.1122 12.6598 24.9379 12.2839 26.8343C11.908 28.7306 11.72 30.6533 11.72 32.6023C11.72 39.0527 13.6403 44.7837 17.4809 49.7951C21.3215 54.8065 26.2216 58.1969 32.1811 59.9664L30.3171 63.1449ZM51.8521 18.1427V14.5511H62.537C59.829 11.1415 56.5295 8.5173 52.6387 6.67842C48.7478 4.83954 44.6403 3.91891 40.316 3.91651C36.5186 3.91651 32.9677 4.59891 29.6635 5.9637C26.364 7.3261 23.4405 9.21167 20.8929 11.6204L19.0289 8.37364C21.8853 5.86433 25.113 3.89616 28.7117 2.46911C32.3128 1.03967 36.1582 0.324951 40.2478 0.324951C44.9312 0.324951 49.3584 1.26594 53.5294 3.14792C57.7004 5.02989 61.3314 7.73793 64.4226 11.272V1.98425H68.0141V18.1463L51.8521 18.1427ZM52.3478 71.6749L38.3766 63.522L46.4576 49.6407L49.5463 51.4364L43.9435 60.9972C51.0524 60.0706 56.9904 56.9136 61.7576 51.5262C66.5248 46.1389 68.9096 39.8237 68.912 32.5807C68.912 31.3237 68.8282 30.0882 68.6606 28.8743C68.493 27.6627 68.2332 26.4811 67.8812 25.3294H71.6308C71.923 26.4787 72.1408 27.6495 72.2845 28.8419C72.4282 30.0319 72.5 31.2555 72.5 32.5125C72.5 40.3182 70.0458 47.178 65.1373 53.0921C60.2264 59.0062 53.9783 62.6792 46.393 64.111L54.1435 68.5861L52.3478 71.6749Z" fill="#85BEDB"/>
</svg>
