<svg width="71" height="72" viewBox="0 0 71 72" fill="none" xmlns="http://www.w3.org/2000/svg">
<path d="M16.0996 22.2723L22.4759 15.9779L16.0996 9.67566L9.79737 15.9779L16.0996 22.2723ZM6.80224 42.9028C5.00569 42.9028 3.50682 42.3009 2.30565 41.0972C1.10449 39.8934 0.5026 38.3945 0.5 36.6006V6.29834C0.5 4.50439 1.10189 3.00682 2.30565 1.80565C3.50942 0.604485 5.00699 0.00259993 6.79834 0H64.3999C66.1938 0 67.6914 0.601885 68.8926 1.80565C70.0938 3.00942 70.6956 4.50699 70.6982 6.29834V36.6006C70.6982 38.3945 70.0964 39.8934 68.8926 41.0972C67.6888 42.3009 66.1899 42.9015 64.396 42.8989H52.4233C52.5429 42.2489 52.6222 41.599 52.6612 40.949C52.7002 40.299 52.7054 39.649 52.6768 38.999H64.396C64.9966 38.999 65.5478 38.7494 66.0496 38.2502C66.5513 37.751 66.8009 37.2012 66.7983 36.6006V6.29834C66.7983 5.70036 66.5487 5.15047 66.0496 4.64868C65.5504 4.1469 64.9992 3.8973 64.396 3.8999H6.80224C6.20166 3.8999 5.65047 4.1495 5.14868 4.64868C4.6469 5.14787 4.3973 5.69906 4.3999 6.30224V36.6006C4.3999 37.1986 4.6495 37.7485 5.14868 38.2502C5.64787 38.752 6.19776 39.0016 6.79834 38.999H18.5214C18.4902 39.649 18.4954 40.299 18.537 40.949C18.5786 41.599 18.6592 42.2489 18.7788 42.8989L6.80224 42.9028ZM53.1409 17.5535C54.2198 17.5535 55.1415 17.1739 55.9059 16.4147C56.6703 15.6555 57.0512 14.7377 57.0486 13.6614C57.046 12.585 56.6677 11.662 55.9137 10.8924C55.1597 10.1228 54.2407 9.74196 53.1565 9.74975C52.0723 9.75756 51.1506 10.1358 50.3914 10.8846C49.6323 11.6334 49.2514 12.5525 49.2488 13.6419C49.2462 14.7312 49.6245 15.6529 50.3836 16.4069C51.1428 17.1609 52.0619 17.5457 53.1409 17.5535ZM12.1997 72V66.5089C12.1997 64.9854 12.6209 63.5606 13.4633 62.2346C14.3057 60.9087 15.4418 59.9337 16.8718 59.3097C19.8565 57.9655 22.9088 56.9438 26.0288 56.2444C29.1487 55.545 32.3388 55.1966 35.5991 55.1992C38.8594 55.2018 42.0496 55.5502 45.1695 56.2444C48.2894 56.9386 51.3417 57.9603 54.3264 59.3097C55.7564 59.9337 56.8926 60.9022 57.735 62.2151C58.5773 63.5307 58.9985 64.9542 58.9985 66.4855V72H12.1997ZM16.0996 68.1001H55.0986V66.5089C55.0986 65.729 54.8711 65.014 54.4161 64.364C53.9612 63.714 53.3762 63.2265 52.6612 62.9015C49.9313 61.6666 47.1363 60.7241 44.2764 60.0741C41.4165 59.4241 38.524 59.0991 35.5991 59.0991C32.6742 59.0991 29.7818 59.4241 26.9218 60.0741C24.0619 60.7241 21.267 61.6666 18.537 62.9015C17.8221 63.2265 17.2371 63.714 16.7821 64.364C16.3271 65.014 16.0996 65.729 16.0996 66.5089V68.1001ZM35.5991 49.7979C32.8796 49.7979 30.5747 48.8528 28.6846 46.9626C26.7944 45.0751 25.8494 42.7702 25.8494 40.0481C25.8494 37.326 26.7944 35.0211 28.6846 33.1336C30.5747 31.246 32.8796 30.3009 35.5991 30.2983C38.3186 30.2957 40.6235 31.2408 42.5136 33.1336C44.4038 35.0263 45.3489 37.3312 45.3489 40.0481C45.3489 42.765 44.4038 45.0699 42.5136 46.9626C40.6235 48.8554 38.3186 49.8004 35.5991 49.7979ZM35.5991 45.8979C37.2241 45.8979 38.6059 45.3299 39.7447 44.1937C40.8835 43.0575 41.4516 41.6757 41.449 40.0481C41.4464 38.4205 40.8783 37.04 39.7447 35.9064C38.6111 34.7728 37.2293 34.2034 35.5991 34.1982C33.969 34.193 32.5884 34.7624 31.4574 35.9064C30.3264 37.0504 29.7571 38.4309 29.7493 40.0481C29.7415 41.6653 30.3108 43.0471 31.4574 44.1937C32.604 45.3403 33.9846 45.9083 35.5991 45.8979Z" fill="#85BEDB"/>
</svg>
