<svg width="73" height="72" viewBox="0 0 73 72" fill="none" xmlns="http://www.w3.org/2000/svg">
<path d="M20.8176 72C19.1592 72 17.7756 71.4456 16.6668 70.3368C15.558 69.228 15.0024 67.8444 15 66.186V5.814C15 4.158 15.5556 2.7756 16.6668 1.6668C17.778 0.558 19.1616 0.0024 20.8176 0H52.386C54.042 0 55.4244 0.5556 56.5332 1.6668C57.642 2.778 58.1976 4.1616 58.2 5.8176V66.186C58.2 67.842 57.6456 69.2256 56.5368 70.3368C55.428 71.448 54.0432 72.0024 52.3824 72H20.8176ZM18.6 63V66.186C18.6 66.738 18.8304 67.2456 19.2912 67.7088C19.752 68.172 20.2596 68.4024 20.814 68.4H52.386C52.938 68.4 53.4456 68.1696 53.9088 67.7088C54.372 67.248 54.6024 66.7392 54.6 66.1824V63H18.6ZM18.6 59.4H54.6V12.6H18.6V59.4ZM18.6 9H54.6V5.814C54.6 5.262 54.3696 4.7544 53.9088 4.2912C53.448 3.828 52.9392 3.5976 52.3824 3.6H20.8176C20.2632 3.6 19.7544 3.8304 19.2912 4.2912C18.828 4.752 18.5976 5.2608 18.6 5.8176V9Z" fill="#85BEDB"/>
</svg>
