<svg width="73" height="72" viewBox="0 0 73 72" fill="none" xmlns="http://www.w3.org/2000/svg">
<path d="M10 9V63C10 65.3869 10.9482 67.6761 12.636 69.364C14.3239 71.0518 16.6131 72 19 72H61.75C62.3467 72 62.919 71.7629 63.341 71.341C63.7629 70.919 64 70.3467 64 69.75C64 69.1533 63.7629 68.581 63.341 68.159C62.919 67.7371 62.3467 67.5 61.75 67.5H19C17.8065 67.5 16.6619 67.0259 15.818 66.182C14.9741 65.3381 14.5 64.1935 14.5 63H59.5C60.6935 63 61.8381 62.5259 62.682 61.682C63.5259 60.8381 64 59.6935 64 58.5V9C64 6.61305 63.0518 4.32387 61.364 2.63604C59.6761 0.948211 57.3869 0 55 0H19C16.6131 0 14.3239 0.948211 12.636 2.63604C10.9482 4.32387 10 6.61305 10 9ZM55 4.5C56.1935 4.5 57.3381 4.97411 58.182 5.81802C59.0259 6.66193 59.5 7.80653 59.5 9V58.5H14.5V9C14.5 7.80653 14.9741 6.66193 15.818 5.81802C16.6619 4.97411 17.8065 4.5 19 4.5H55ZM40.375 16.875C40.375 15.9799 40.0194 15.1214 39.3865 14.4885C38.7535 13.8556 37.8951 13.5 37 13.5C36.1049 13.5 35.2465 13.8556 34.6135 14.4885C33.9806 15.1214 33.625 15.9799 33.625 16.875C33.625 17.7701 33.9806 18.6286 34.6135 19.2615C35.2465 19.8944 36.1049 20.25 37 20.25C37.8951 20.25 38.7535 19.8944 39.3865 19.2615C40.0194 18.6286 40.375 17.7701 40.375 16.875ZM39.25 47.25C39.25 47.8467 39.0129 48.419 38.591 48.841C38.169 49.2629 37.5967 49.5 37 49.5C36.4033 49.5 35.831 49.2629 35.409 48.841C34.9871 48.419 34.75 47.8467 34.75 47.25V29.25C34.75 28.6533 34.9871 28.081 35.409 27.659C35.831 27.2371 36.4033 27 37 27C37.5967 27 38.169 27.2371 38.591 27.659C39.0129 28.081 39.25 28.6533 39.25 29.25V47.25Z" fill="#85BEDB"/>
</svg>
