<svg width="81" height="80" viewBox="0 0 81 80" fill="none" xmlns="http://www.w3.org/2000/svg">
<path d="M40.5 0C62.6176 0 80.5 17.8824 80.5 40C80.5 62.1176 62.6176 80 40.5 80C18.3824 80 0.5 62.1176 0.5 40C0.5 17.8824 18.3824 0 40.5 0ZM40.5 75.2941C60.0294 75.2941 75.7941 59.5294 75.7941 40C75.7941 20.4706 60.0294 4.70588 40.5 4.70588C20.9706 4.70588 5.20588 20.4706 5.20588 40C5.20588 59.5294 20.9706 75.2941 40.5 75.2941Z" fill="#F5CABE"/>
<path d="M20.9713 35.9998L40.5007 55.5292L60.0301 35.9998L63.3242 39.2939L40.5007 62.1174L17.6772 39.2939L20.9713 35.9998Z" fill="#F5CABE"/>
<path d="M42.8525 58.8235H38.1467L38.1467 18.8235H42.8525L42.8525 58.8235Z" fill="#F5CABE"/>
</svg>
