<svg width="51" height="61" viewBox="0 0 51 61" fill="none" xmlns="http://www.w3.org/2000/svg">
<path d="M25.5 11.25C27.7734 11.25 29.9648 11.543 32.0742 12.1289C34.1836 12.7148 36.1523 13.5469 37.9805 14.625C39.8086 15.7031 41.4844 16.9922 43.0078 18.4922C44.5312 19.9922 45.8203 21.6562 46.875 23.4844C47.9297 25.3125 48.7617 27.293 49.3711 29.4258C49.9805 31.5586 50.2734 33.75 50.25 36C50.25 38.2734 49.957 40.4648 49.3711 42.5742C48.7852 44.6836 47.9531 46.6523 46.875 48.4805C45.7969 50.3086 44.5078 51.9844 43.0078 53.5078C41.5078 55.0312 39.8438 56.3203 38.0156 57.375C36.1875 58.4297 34.207 59.2617 32.0742 59.8711C29.9414 60.4805 27.75 60.7734 25.5 60.75C23.2266 60.75 21.0352 60.457 18.9258 59.8711C16.8164 59.2852 14.8477 58.4531 13.0195 57.375C11.1914 56.2969 9.51562 55.0078 7.99219 53.5078C6.46875 52.0078 5.17969 50.3438 4.125 48.5156C3.07031 46.6875 2.23828 44.707 1.62891 42.5742C1.01953 40.4414 0.726562 38.25 0.75 36C0.75 33.7266 1.04297 31.5352 1.62891 29.4258C2.21484 27.3164 3.04688 25.3477 4.125 23.5195C5.20312 21.6914 6.49219 20.0156 7.99219 18.4922C9.49219 16.9688 11.1562 15.6797 12.9844 14.625C14.8125 13.5703 16.793 12.7383 18.9258 12.1289C21.0586 11.5195 23.25 11.2266 25.5 11.25ZM25.5 56.25C28.2891 56.25 30.9141 55.7227 33.375 54.668C35.8359 53.6133 37.9805 52.1602 39.8086 50.3086C41.6367 48.457 43.0781 46.3125 44.1328 43.875C45.1875 41.4375 45.7266 38.8125 45.75 36C45.75 33.2109 45.2227 30.5859 44.168 28.125C43.1133 25.6641 41.6602 23.5195 39.8086 21.6914C37.957 19.8633 35.8125 18.4219 33.375 17.3672C30.9375 16.3125 28.3125 15.7734 25.5 15.75C22.7109 15.75 20.0859 16.2773 17.625 17.332C15.1641 18.3867 13.0195 19.8398 11.1914 21.6914C9.36328 23.543 7.92188 25.6875 6.86719 28.125C5.8125 30.5625 5.27344 33.1875 5.25 36C5.25 38.7891 5.77734 41.4141 6.83203 43.875C7.88672 46.3359 9.33984 48.4805 11.1914 50.3086C13.043 52.1367 15.1875 53.5781 17.625 54.6328C20.0625 55.6875 22.6875 56.2266 25.5 56.25ZM25.5 36H34.5V40.5H21V22.5H25.5V36ZM47.7891 13.7109C44.7891 10.7344 41.3789 8.46094 37.5586 6.89062C33.7383 5.32031 29.7188 4.52344 25.5 4.5C21.2812 4.5 17.2617 5.28516 13.4414 6.85547C9.62109 8.42578 6.21094 10.7109 3.21094 13.7109L0.046875 10.5469C1.73438 8.85938 3.5625 7.35938 5.53125 6.04688C7.5 4.73438 9.5625 3.63281 11.7188 2.74219C13.875 1.85156 16.1133 1.17188 18.4336 0.703125C20.7539 0.234375 23.1094 0 25.5 0C27.8906 0 30.2344 0.222656 32.5312 0.667969C34.8281 1.11328 37.0664 1.79297 39.2461 2.70703C41.4258 3.62109 43.5 4.73438 45.4688 6.04688C47.4375 7.35938 49.2656 8.85938 50.9531 10.5469L47.7891 13.7109Z" fill="#85BEDB"/>
</svg>
