<svg width="237" height="24" viewBox="0 0 237 24" fill="none" xmlns="http://www.w3.org/2000/svg">
<path d="M17.0128 16.1008L20.008 7.768C20.1872 7.2688 20.3152 6.872 20.392 6.5776C20.4688 6.2832 20.5072 6.0272 20.5072 5.8096C20.5072 5.4768 20.3984 5.2528 20.1808 5.1376C19.976 5.0096 19.6048 4.9456 19.0672 4.9456V4.216H23.7328V4.9456C23.144 4.9456 22.696 5.0672 22.3888 5.3104C22.0944 5.5536 21.8448 5.9504 21.64 6.5008L16.8208 19.192H16.1488L12.4624 8.2672L8.3728 19.192H7.7008L3.7072 8.1712C3.4768 7.5568 3.2656 7.0448 3.0736 6.6352C2.8944 6.2128 2.696 5.88 2.4784 5.6368C2.2736 5.3936 2.0368 5.2208 1.768 5.1184C1.4992 5.016 1.1728 4.9648 0.7888 4.9648V4.216H7.048V4.9648C6.3952 4.9648 5.9344 5.0224 5.6656 5.1376C5.4096 5.2528 5.2816 5.4768 5.2816 5.8096C5.2816 5.976 5.3072 6.168 5.3584 6.3856C5.4096 6.6032 5.4864 6.8592 5.5888 7.1536L8.5072 16.0432L10.8688 9.4C11.048 8.9008 11.2208 8.44 11.3872 8.0176C11.5664 7.5824 11.7072 7.192 11.8096 6.8464C11.6304 6.4752 11.464 6.168 11.3104 5.9248C11.1696 5.6816 11.0224 5.4896 10.8688 5.3488C10.728 5.208 10.5744 5.112 10.408 5.0608C10.2544 4.9968 10.088 4.9648 9.9088 4.9648V4.216H15.784V4.9648C15.4128 4.9648 15.112 4.9776 14.8816 5.0032C14.6512 5.0288 14.472 5.0736 14.344 5.1376C14.2288 5.1888 14.1456 5.2656 14.0944 5.368C14.056 5.4704 14.0368 5.592 14.0368 5.7328C14.0368 5.9248 14.0688 6.1616 14.1328 6.4432C14.2096 6.712 14.312 7.0576 14.44 7.48L17.0128 16.1008Z" fill="#1E1D18"/>
<path d="M48.7462 2.896C49.7318 2.896 50.6502 3.0696 51.5014 3.4168C52.3526 3.764 53.0918 4.24 53.719 4.8448C54.3462 5.4496 54.839 6.1608 55.1974 6.9784C55.5558 7.796 55.735 8.6808 55.735 9.6328C55.735 10.54 55.5502 11.3912 55.1806 12.1864C54.8222 12.9816 54.3294 13.676 53.7022 14.2696C53.075 14.852 52.3358 15.3168 51.4846 15.664C50.6334 16 49.7206 16.168 48.7462 16.168C47.7718 16.168 46.859 16 46.0078 15.664C45.1566 15.3168 44.4174 14.852 43.7902 14.2696C43.163 13.676 42.6646 12.9816 42.295 12.1864C41.9366 11.3912 41.7574 10.54 41.7574 9.6328C41.7574 8.6808 41.9366 7.796 42.295 6.9784C42.6534 6.1608 43.1462 5.4496 43.7734 4.8448C44.4006 4.24 45.1398 3.764 45.991 3.4168C46.8422 3.0696 47.7606 2.896 48.7462 2.896ZM48.7462 15.244C49.4854 15.244 50.1462 15.1152 50.7286 14.8576C51.3222 14.6 51.8262 14.2304 52.2406 13.7488C52.6662 13.2672 52.991 12.6848 53.215 12.0016C53.439 11.3072 53.551 10.5344 53.551 9.6832C53.551 8.7872 53.439 7.9808 53.215 7.264C52.991 6.536 52.6718 5.92 52.2574 5.416C51.843 4.9008 51.339 4.5088 50.7454 4.24C50.1518 3.96 49.4854 3.82 48.7462 3.82C48.007 3.82 47.3406 3.96 46.747 4.24C46.1534 4.5088 45.6494 4.9008 45.235 5.416C44.8206 5.92 44.5014 6.536 44.2774 7.264C44.0534 7.9808 43.9414 8.7872 43.9414 9.6832C43.9414 10.5344 44.0534 11.3072 44.2774 12.0016C44.5014 12.6848 44.8206 13.2672 45.235 13.7488C45.6494 14.2304 46.1534 14.6 46.747 14.8576C47.3406 15.1152 48.007 15.244 48.7462 15.244Z" fill="#1E1D18"/>
<path d="M40.7998 20.3999H57.5998" stroke="#1E1D18" stroke-width="1.2"/>
<path d="M77.1839 7.1344C77.1839 6.6864 77.1583 6.328 77.1071 6.0592C77.0687 5.7776 76.9791 5.56 76.8383 5.4064C76.7103 5.24 76.5183 5.1312 76.2623 5.08C76.0063 5.016 75.6735 4.9712 75.2639 4.9456V4.216H81.1007V4.9456C80.6911 4.9584 80.3583 4.9968 80.1023 5.0608C79.8591 5.1248 79.6671 5.24 79.5263 5.4064C79.3983 5.5728 79.3087 5.8032 79.2575 6.0976C79.2191 6.392 79.1999 6.7824 79.1999 7.2688V19.0384C79.1999 20.6512 78.8607 21.88 78.1823 22.7248C77.5039 23.5696 76.5119 23.992 75.2063 23.992C74.3231 23.992 73.6191 23.8192 73.0943 23.4736C72.5567 23.1408 72.2879 22.6928 72.2879 22.1296C72.2879 21.7968 72.3775 21.5408 72.5567 21.3616C72.7231 21.1952 72.9599 21.112 73.2671 21.112C73.5103 21.112 73.7087 21.1696 73.8623 21.2848C74.0031 21.4128 74.1695 21.656 74.3615 22.0144C74.5791 22.424 74.7647 22.6992 74.9183 22.84C75.0847 22.9936 75.2959 23.0704 75.5519 23.0704C76.0767 23.0704 76.4799 22.7888 76.7615 22.2256C77.0431 21.6624 77.1839 20.8624 77.1839 19.8256V7.1344Z" fill="#1E1D18"/>
<path d="M112.429 4.216H112.967L113.139 8.632H112.429C112.147 7.5056 111.603 6.6224 110.797 5.9824C109.991 5.3424 109.018 5.0224 107.879 5.0224C107.098 5.0224 106.4 5.176 105.786 5.4832C105.171 5.7904 104.653 6.232 104.231 6.808C103.808 7.384 103.482 8.088 103.251 8.92C103.034 9.752 102.925 10.6928 102.925 11.7424C102.925 13.8032 103.354 15.3904 104.211 16.504C105.069 17.6048 106.311 18.1552 107.936 18.1552C110.407 18.1552 111.994 16.8432 112.698 14.2192H113.485V19H112.813L112.371 17.4832C111.027 18.6224 109.402 19.192 107.495 19.192C106.407 19.192 105.421 19.0192 104.538 18.6736C103.667 18.328 102.919 17.8416 102.291 17.2144C101.677 16.5744 101.197 15.8 100.851 14.8912C100.519 13.9824 100.352 12.9712 100.352 11.8576C100.352 10.6928 100.531 9.6304 100.89 8.6704C101.248 7.7104 101.747 6.8848 102.387 6.1936C103.04 5.5024 103.815 4.9712 104.711 4.6C105.619 4.216 106.618 4.024 107.706 4.024C108.474 4.024 109.197 4.1328 109.875 4.3504C110.554 4.568 111.29 4.92 112.083 5.4064L112.429 4.216Z" fill="#1E1D18"/>
<path d="M136.992 15.3712C136.992 16.0112 137.018 16.5168 137.069 16.888C137.12 17.2592 137.216 17.5472 137.357 17.752C137.51 17.9568 137.722 18.0912 137.99 18.1552C138.272 18.2192 138.637 18.2576 139.085 18.2704V19H132.864V18.2704C133.312 18.2576 133.67 18.2192 133.939 18.1552C134.221 18.0784 134.438 17.944 134.592 17.752C134.746 17.56 134.848 17.2912 134.899 16.9456C134.95 16.5872 134.976 16.1072 134.976 15.5056V7.7104C134.976 7.1728 134.95 6.7312 134.899 6.3856C134.861 6.0272 134.771 5.7456 134.63 5.5408C134.502 5.336 134.31 5.1952 134.054 5.1184C133.798 5.0288 133.466 4.9712 133.056 4.9456V4.216H138.893V4.9456C138.483 4.9584 138.15 5.0096 137.894 5.0992C137.651 5.1888 137.459 5.3424 137.318 5.56C137.19 5.7648 137.101 6.0528 137.05 6.424C137.011 6.7952 136.992 7.2688 136.992 7.8448V15.3712Z" fill="#1E1D18"/>
<path d="M170.029 4.216H170.566L170.739 8.632H170.029C169.747 7.5056 169.203 6.6224 168.397 5.9824C167.59 5.3424 166.617 5.0224 165.478 5.0224C164.697 5.0224 164 5.176 163.385 5.4832C162.771 5.7904 162.253 6.232 161.83 6.808C161.408 7.384 161.081 8.088 160.851 8.92C160.633 9.752 160.525 10.6928 160.525 11.7424C160.525 13.8032 160.953 15.3904 161.811 16.504C162.669 17.6048 163.91 18.1552 165.536 18.1552C168.006 18.1552 169.593 16.8432 170.297 14.2192H171.085V19H170.413L169.971 17.4832C168.627 18.6224 167.001 19.192 165.094 19.192C164.006 19.192 163.021 19.0192 162.137 18.6736C161.267 18.328 160.518 17.8416 159.891 17.2144C159.277 16.5744 158.797 15.8 158.451 14.8912C158.118 13.9824 157.952 12.9712 157.952 11.8576C157.952 10.6928 158.131 9.6304 158.489 8.6704C158.848 7.7104 159.347 6.8848 159.987 6.1936C160.64 5.5024 161.414 4.9712 162.31 4.6C163.219 4.216 164.217 4.024 165.305 4.024C166.073 4.024 166.797 4.1328 167.475 4.3504C168.153 4.568 168.889 4.92 169.683 5.4064L170.029 4.216Z" fill="#1E1D18"/>
<path d="M194.592 15.9472C194.592 16.4336 194.618 16.8304 194.669 17.1376C194.72 17.4448 194.822 17.6816 194.976 17.848C195.13 18.0144 195.341 18.1296 195.61 18.1936C195.878 18.2448 196.237 18.2704 196.685 18.2704V19H190.464V18.2704C190.912 18.2704 191.27 18.2448 191.539 18.1936C191.821 18.1296 192.038 18.0208 192.192 17.8672C192.346 17.7008 192.448 17.4768 192.499 17.1952C192.55 16.9008 192.576 16.5296 192.576 16.0816V7.1344C192.576 6.648 192.544 6.264 192.48 5.9824C192.429 5.688 192.326 5.464 192.173 5.3104C192.032 5.1568 191.84 5.0608 191.597 5.0224C191.354 4.9712 191.04 4.9456 190.656 4.9456V4.216H196.493V4.9456C196.109 4.9456 195.795 4.9712 195.552 5.0224C195.309 5.0736 195.11 5.1824 194.957 5.3488C194.816 5.5152 194.72 5.752 194.669 6.0592C194.618 6.3536 194.592 6.7568 194.592 7.2688V12.0112L199.392 6.232C199.648 5.912 199.776 5.6624 199.776 5.4832C199.776 5.1248 199.411 4.9456 198.682 4.9456V4.216H203.309V4.9264C203.053 4.9264 202.829 4.9456 202.637 4.984C202.445 5.0096 202.253 5.0736 202.061 5.176C201.882 5.2784 201.69 5.4256 201.485 5.6176C201.28 5.8096 201.043 6.0592 200.774 6.3664L197.165 10.5328L202.771 17.272C203.091 17.6432 203.392 17.9056 203.674 18.0592C203.955 18.2 204.333 18.2704 204.806 18.2704V19H198.912V18.2704C199.411 18.2704 199.77 18.232 199.987 18.1552C200.205 18.0656 200.314 17.9312 200.314 17.752C200.314 17.6496 200.262 17.5024 200.16 17.3104C200.058 17.1184 199.891 16.8816 199.661 16.6L195.917 11.992L194.592 13.528V15.9472Z" fill="#1E1D18"/>
<path d="M230.77 13.6432H225.643C225.426 14.168 225.24 14.6352 225.086 15.0448C224.933 15.4416 224.805 15.7872 224.702 16.0816C224.613 16.376 224.549 16.6256 224.51 16.8304C224.472 17.0352 224.453 17.2016 224.453 17.3296C224.453 17.688 224.568 17.9376 224.798 18.0784C225.029 18.2064 225.413 18.2704 225.95 18.2704V19H221.285V18.2704C221.579 18.232 221.829 18.1808 222.034 18.1168C222.251 18.0528 222.437 17.9632 222.59 17.848C222.757 17.7328 222.898 17.5856 223.013 17.4064C223.141 17.2144 223.262 16.984 223.378 16.7152L228.37 4.216H229.195L233.554 15.0448C233.848 15.7616 234.104 16.3376 234.322 16.7728C234.539 17.1952 234.75 17.5152 234.955 17.7328C235.16 17.9504 235.378 18.0912 235.608 18.1552C235.851 18.2192 236.139 18.2512 236.472 18.2512V19H230.213V18.2512C230.891 18.2512 231.358 18.1872 231.614 18.0592C231.87 17.9312 231.998 17.72 231.998 17.4256C231.998 17.2976 231.992 17.1824 231.979 17.08C231.966 16.9648 231.941 16.8432 231.902 16.7152C231.877 16.5872 231.832 16.4464 231.768 16.2928C231.717 16.1264 231.646 15.9344 231.557 15.7168L230.77 13.6432ZM226.027 12.6832H230.405L228.274 7.0192L226.027 12.6832Z" fill="#1E1D18"/>
</svg>
