<svg width="55" height="72" viewBox="0 0 55 72" fill="none" xmlns="http://www.w3.org/2000/svg">
<path fill-rule="evenodd" clip-rule="evenodd" d="M27.6182 14.4C29.0503 14.4 30.4238 13.8311 31.4365 12.8184C32.4492 11.8057 33.0182 10.4322 33.0182 9C33.0182 7.56783 32.4492 6.19432 31.4365 5.18162C30.4238 4.16893 29.0503 3.6 27.6182 3.6C26.186 3.6 24.8125 4.16893 23.7998 5.18162C22.7871 6.19432 22.2182 7.56783 22.2182 9C22.2182 10.4322 22.7871 11.8057 23.7998 12.8184C24.8125 13.8311 26.186 14.4 27.6182 14.4ZM27.6182 18C30.0051 18 32.2943 17.0518 33.9821 15.364C35.67 13.6761 36.6182 11.3869 36.6182 9C36.6182 6.61305 35.67 4.32387 33.9821 2.63604C32.2943 0.948211 30.0051 0 27.6182 0C25.2312 0 22.942 0.948211 21.2542 2.63604C19.5664 4.32387 18.6182 6.61305 18.6182 9C18.6182 11.3869 19.5664 13.6761 21.2542 15.364C22.942 17.0518 25.2312 18 27.6182 18Z" fill="#85BEDB"/>
<path fill-rule="evenodd" clip-rule="evenodd" d="M15.6921 25.7652C16.5156 25.922 17.2587 26.3613 17.793 27.0073C18.3273 27.6533 18.6194 28.4656 18.6189 29.304V66.6C18.6189 67.0774 18.8085 67.5352 19.1461 67.8728C19.4836 68.2103 19.9415 68.4 20.4189 68.4H20.5755C21.0248 68.4 21.4579 68.2319 21.7897 67.9288C22.1214 67.6257 22.3278 67.2095 22.3683 66.762L24.0189 48.6C24.0189 47.6452 24.3981 46.7295 25.0733 46.0544C25.7484 45.3793 26.6641 45 27.6189 45C28.5736 45 29.4893 45.3793 30.1644 46.0544C30.8396 46.7295 31.2189 47.6452 31.2189 48.6L32.8695 66.762C32.9099 67.2095 33.1163 67.6257 33.448 67.9288C33.7798 68.2319 34.2129 68.4 34.6623 68.4H34.8189C35.2962 68.4 35.7541 68.2103 36.0917 67.8728C36.4292 67.5352 36.6189 67.0774 36.6189 66.6V29.3706C36.6187 28.5325 36.911 27.7207 37.4453 27.075C37.9796 26.4293 38.7224 25.9903 39.5457 25.8336C42.7065 25.2324 46.0491 24.399 49.7229 23.328C49.9498 23.2618 50.1614 23.1516 50.3458 23.0036C50.5301 22.8556 50.6835 22.6727 50.7971 22.4655C50.9108 22.2582 50.9825 22.0306 51.0082 21.7956C51.0339 21.5606 51.013 21.3229 50.9469 21.096C50.8807 20.8691 50.7704 20.6574 50.6225 20.4731C50.4745 20.2887 50.2916 20.1354 50.0844 20.0217C49.8771 19.9081 49.6495 19.8363 49.4145 19.8106C49.1795 19.7849 48.9418 19.8058 48.7149 19.872C40.3737 22.302 33.9729 23.4288 27.6261 23.4C21.2721 23.3712 14.8641 22.1868 6.49946 19.8666C6.27011 19.7982 6.02943 19.7762 5.79149 19.802C5.55355 19.8277 5.32313 19.9006 5.11372 20.0165C4.9043 20.1324 4.7201 20.2888 4.57187 20.4767C4.42365 20.6646 4.31438 20.8802 4.25047 21.1108C4.18656 21.3415 4.16928 21.5825 4.19965 21.8199C4.23002 22.0573 4.30742 22.2863 4.42733 22.4934C4.54725 22.7005 4.70726 22.8816 4.89801 23.0262C5.08876 23.1707 5.30642 23.2758 5.53826 23.3352C9.19766 24.3504 12.5331 25.164 15.6921 25.7652ZM25.7793 68.0454C25.4633 69.1827 24.7834 70.1852 23.8436 70.8994C22.9038 71.6136 21.7558 72.0002 20.5755 72H20.4189C18.9867 72 17.6132 71.431 16.6005 70.4183C15.5878 69.4057 15.0189 68.0321 15.0189 66.6V29.304C11.7321 28.6776 8.29586 27.8352 4.57526 26.802C3.87773 26.6255 3.2225 26.3113 2.64808 25.878C2.07366 25.4447 1.59163 24.901 1.2303 24.2788C0.868963 23.6566 0.635622 22.9684 0.543979 22.2548C0.452337 21.5411 0.504241 20.8163 0.696643 20.123C0.889044 19.4297 1.21806 18.7818 1.66437 18.2174C2.11068 17.6531 2.66527 17.1836 3.29558 16.8366C3.92588 16.4895 4.61918 16.272 5.33475 16.1967C6.05031 16.1213 6.77372 16.1898 7.46246 16.398C15.6885 18.6786 21.7455 19.773 27.6423 19.8C33.5211 19.8252 39.5547 18.792 47.7087 16.416C48.3927 16.2065 49.1115 16.1351 49.8233 16.2058C50.5351 16.2765 51.2258 16.4879 51.8553 16.8278C52.4847 17.1676 53.0404 17.6292 53.49 18.1856C53.9395 18.742 54.2741 19.3822 54.4742 20.069C54.6742 20.7558 54.7359 21.4755 54.6555 22.1863C54.575 22.8971 54.3542 23.5849 54.0058 24.2096C53.6573 24.8344 53.1882 25.3837 52.6257 25.8256C52.0632 26.2675 51.4185 26.5933 50.7291 26.784C46.9779 27.8784 43.5219 28.7424 40.2189 29.3706V66.6C40.2189 68.0321 39.6499 69.4057 38.6372 70.4183C37.6245 71.431 36.251 72 34.8189 72H34.6623C33.3147 72.0001 32.0158 71.4965 31.0207 70.5879C30.0255 69.6793 29.406 68.4315 29.2839 67.0896L27.6333 48.9276C27.6238 48.8216 27.6189 48.7153 27.6189 48.609C27.6189 48.7146 27.6141 48.8202 27.6045 48.9258L25.9521 67.0878C25.9234 67.4115 25.8656 67.732 25.7793 68.0454Z" fill="#85BEDB"/>
</svg>
