<svg width="51" height="64" viewBox="0 0 51 64" fill="none" xmlns="http://www.w3.org/2000/svg">
<path d="M25.5 36.5C23.275 36.5 21.0999 35.8402 19.2498 34.604C17.3998 33.3679 15.9578 31.6109 15.1064 29.5552C14.2549 27.4995 14.0321 25.2375 14.4662 23.0552C14.9003 20.873 15.9717 18.8684 17.5451 17.2951C19.1184 15.7217 21.123 14.6503 23.3052 14.2162C25.4875 13.7821 27.7495 14.0049 29.8052 14.8564C31.8609 15.7078 33.6179 17.1498 34.854 18.9998C36.0902 20.8499 36.75 23.025 36.75 25.25C36.7464 28.2326 35.56 31.092 33.451 33.201C31.342 35.31 28.4826 36.4964 25.5 36.5ZM25.5 18.5C24.165 18.5 22.8599 18.8959 21.7499 19.6376C20.6399 20.3793 19.7747 21.4335 19.2638 22.6669C18.7529 23.9003 18.6193 25.2575 18.8797 26.5669C19.1402 27.8762 19.783 29.079 20.727 30.023C21.671 30.967 22.8738 31.6099 24.1831 31.8703C25.4925 32.1308 26.8497 31.9971 28.0831 31.4862C29.3165 30.9753 30.3707 30.1101 31.1124 29.0001C31.8541 27.8901 32.25 26.585 32.25 25.25C32.2482 23.4603 31.5365 21.7445 30.271 20.479C29.0055 19.2135 27.2897 18.5018 25.5 18.5Z" fill="#85BEDB"/>
<path d="M25.5 63.5L6.51902 41.1147C6.25527 40.7786 5.99426 40.4404 5.73602 40.1C2.49536 35.8281 0.743983 30.612 0.750016 25.25C0.750016 18.6859 3.3576 12.3906 7.99912 7.74911C12.6406 3.10758 18.9359 0.5 25.5 0.5C32.0641 0.5 38.3594 3.10758 43.0009 7.74911C47.6424 12.3906 50.25 18.6859 50.25 25.25C50.2552 30.6094 48.5047 35.8229 45.2663 40.0933L45.264 40.1C45.264 40.1 44.589 40.9865 44.4878 41.1058L25.5 63.5ZM9.32926 37.3888C9.32926 37.3888 9.85351 38.0817 9.97276 38.2302L25.5 56.543L41.0475 38.2055C41.1465 38.0817 41.673 37.3843 41.6753 37.382C44.324 33.8926 45.7554 29.6308 45.75 25.25C45.75 19.8794 43.6165 14.7287 39.8189 10.9311C36.0213 7.13348 30.8706 5 25.5 5C20.1294 5 14.9787 7.13348 11.1811 10.9311C7.38349 14.7287 5.25002 19.8794 5.25002 25.25C5.24446 29.6337 6.67752 33.8981 9.32926 37.3888Z" fill="#85BEDB"/>
</svg>
