<svg width="54" height="54" viewBox="0 0 54 54" fill="none" xmlns="http://www.w3.org/2000/svg">
<path d="M27 0C41.9121 0 54 12.0879 54 27C54 41.9121 41.9121 54 27 54C22.2285 54.0082 17.5408 52.7454 13.419 50.3415L0.0108417 54L3.66124 40.5864C1.25543 36.4633 -0.00832039 31.7736 4.12254e-05 27C4.12254e-05 12.0879 12.0879 0 27 0ZM17.7984 14.31L17.2584 14.3316C16.9093 14.3556 16.5682 14.4473 16.254 14.6016C15.9613 14.7677 15.6939 14.975 15.4602 15.2172C15.1362 15.5223 14.9526 15.7869 14.7555 16.0434C13.7569 17.3418 13.2192 18.9359 13.2273 20.574C13.2327 21.897 13.5783 23.1849 14.1183 24.3891C15.2226 26.8245 17.0397 29.403 19.4373 31.7925C20.0151 32.3676 20.5821 32.9454 21.1923 33.4827C24.1716 36.1055 27.7217 37.997 31.5603 39.0069L33.0939 39.2418C33.5934 39.2688 34.0929 39.231 34.5951 39.2067C35.3813 39.1652 36.1489 38.9523 36.8442 38.583C37.1975 38.4003 37.5425 38.2021 37.8783 37.989C37.8783 37.989 37.9926 37.9116 38.2158 37.746C38.5803 37.476 38.8044 37.2843 39.1068 36.9684C39.3336 36.7344 39.5226 36.4626 39.6738 36.153C39.8844 35.7129 40.095 34.8732 40.1814 34.1739C40.2462 33.6393 40.2273 33.3477 40.2192 33.1668C40.2084 32.8779 39.9681 32.5782 39.7062 32.4513L38.1348 31.7466C38.1348 31.7466 35.7858 30.7233 34.3494 30.0699C34.1991 30.0044 34.038 29.9669 33.8742 29.9592C33.6895 29.9398 33.5027 29.9605 33.3266 30.0196C33.1505 30.0788 32.9892 30.1751 32.8536 30.3021C32.8401 30.2967 32.6592 30.4506 30.7071 32.8158C30.5951 32.9663 30.4407 33.0801 30.2638 33.1426C30.0868 33.2051 29.8953 33.2135 29.7135 33.1668C29.5375 33.1199 29.3652 33.0603 29.1978 32.9886C28.863 32.8482 28.7469 32.7942 28.5174 32.697C26.9673 32.0217 25.5324 31.108 24.2649 29.9889C23.9247 29.6919 23.6088 29.3679 23.2848 29.0547C22.2227 28.0373 21.297 26.8865 20.5308 25.6311L20.3715 25.3746C20.2588 25.2012 20.1664 25.0155 20.0961 24.8211C19.9935 24.4242 20.2608 24.1056 20.2608 24.1056C20.2608 24.1056 20.9169 23.3874 21.222 22.9986C21.519 22.6206 21.7701 22.2534 21.9321 21.9915C22.2507 21.4785 22.3506 20.952 22.1832 20.5443C21.4272 18.6975 20.646 16.8606 19.8396 15.0336C19.6803 14.6718 19.2078 14.4126 18.7785 14.3613C18.6327 14.3433 18.4869 14.3289 18.3411 14.3181C17.9786 14.2973 17.6151 14.3009 17.253 14.3289L17.7984 14.31Z" fill="#85BEDB"/>
</svg>
