<svg width="54" height="40" viewBox="0 0 54 40" fill="none" xmlns="http://www.w3.org/2000/svg">
<path fill-rule="evenodd" clip-rule="evenodd" d="M19.3644 23.542L27.0054 28.6987L34.371 23.6833L50.8815 39.7608C50.4459 39.9012 49.9851 39.9723 49.4991 39.974H4.5009C3.9069 39.974 3.3399 39.8594 2.8188 39.6542L19.3644 23.542ZM54 10.3293V35.5316C54 36.1898 53.8542 36.8134 53.595 37.3757L37.4112 21.6153L54 10.3293ZM0 10.4705L16.3134 21.482L0.2862 37.0932C0.0984495 36.5934 0.00156328 36.0647 0 35.5316L0 10.4705ZM49.4991 0C51.9831 0 54 1.98804 54 4.44245V6.0041L26.9946 24.3788L0 6.156V4.44245C0 1.99071 2.0142 0 4.5009 0H49.4991Z" fill="#85BEDB"/>
</svg>
