<svg width="237" height="24" viewBox="0 0 237 24" fill="none" xmlns="http://www.w3.org/2000/svg">
<path d="M17.0128 16.1008L20.008 7.768C20.1872 7.2688 20.3152 6.872 20.392 6.5776C20.4688 6.2832 20.5072 6.0272 20.5072 5.8096C20.5072 5.4768 20.3984 5.2528 20.1808 5.1376C19.976 5.0096 19.6048 4.9456 19.0672 4.9456V4.216H23.7328V4.9456C23.144 4.9456 22.696 5.0672 22.3888 5.3104C22.0944 5.5536 21.8448 5.9504 21.64 6.5008L16.8208 19.192H16.1488L12.4624 8.2672L8.3728 19.192H7.7008L3.7072 8.1712C3.4768 7.5568 3.2656 7.0448 3.0736 6.6352C2.8944 6.2128 2.696 5.88 2.4784 5.6368C2.2736 5.3936 2.0368 5.2208 1.768 5.1184C1.4992 5.016 1.1728 4.9648 0.7888 4.9648V4.216H7.048V4.9648C6.3952 4.9648 5.9344 5.0224 5.6656 5.1376C5.4096 5.2528 5.2816 5.4768 5.2816 5.8096C5.2816 5.976 5.3072 6.168 5.3584 6.3856C5.4096 6.6032 5.4864 6.8592 5.5888 7.1536L8.5072 16.0432L10.8688 9.4C11.048 8.9008 11.2208 8.44 11.3872 8.0176C11.5664 7.5824 11.7072 7.192 11.8096 6.8464C11.6304 6.4752 11.464 6.168 11.3104 5.9248C11.1696 5.6816 11.0224 5.4896 10.8688 5.3488C10.728 5.208 10.5744 5.112 10.408 5.0608C10.2544 4.9968 10.088 4.9648 9.9088 4.9648V4.216H15.784V4.9648C15.4128 4.9648 15.112 4.9776 14.8816 5.0032C14.6512 5.0288 14.472 5.0736 14.344 5.1376C14.2288 5.1888 14.1456 5.2656 14.0944 5.368C14.056 5.4704 14.0368 5.592 14.0368 5.7328C14.0368 5.9248 14.0688 6.1616 14.1328 6.4432C14.2096 6.712 14.312 7.0576 14.44 7.48L17.0128 16.1008Z" fill="#1E1D18"/>
<path d="M48.7472 2.896C49.7328 2.896 50.6512 3.0696 51.5024 3.4168C52.3536 3.764 53.0928 4.24 53.72 4.8448C54.3472 5.4496 54.84 6.1608 55.1984 6.9784C55.5568 7.796 55.736 8.6808 55.736 9.6328C55.736 10.54 55.5512 11.3912 55.1816 12.1864C54.8232 12.9816 54.3304 13.676 53.7032 14.2696C53.076 14.852 52.3368 15.3168 51.4856 15.664C50.6344 16 49.7216 16.168 48.7472 16.168C47.7728 16.168 46.86 16 46.0088 15.664C45.1576 15.3168 44.4184 14.852 43.7912 14.2696C43.164 13.676 42.6656 12.9816 42.296 12.1864C41.9376 11.3912 41.7584 10.54 41.7584 9.6328C41.7584 8.6808 41.9376 7.796 42.296 6.9784C42.6544 6.1608 43.1472 5.4496 43.7744 4.8448C44.4016 4.24 45.1408 3.764 45.992 3.4168C46.8432 3.0696 47.7616 2.896 48.7472 2.896ZM48.7472 15.244C49.4864 15.244 50.1472 15.1152 50.7296 14.8576C51.3232 14.6 51.8272 14.2304 52.2416 13.7488C52.6672 13.2672 52.992 12.6848 53.216 12.0016C53.44 11.3072 53.552 10.5344 53.552 9.6832C53.552 8.7872 53.44 7.9808 53.216 7.264C52.992 6.536 52.6728 5.92 52.2584 5.416C51.844 4.9008 51.34 4.5088 50.7464 4.24C50.1528 3.96 49.4864 3.82 48.7472 3.82C48.008 3.82 47.3416 3.96 46.748 4.24C46.1544 4.5088 45.6504 4.9008 45.236 5.416C44.8216 5.92 44.5024 6.536 44.2784 7.264C44.0544 7.9808 43.9424 8.7872 43.9424 9.6832C43.9424 10.5344 44.0544 11.3072 44.2784 12.0016C44.5024 12.6848 44.8216 13.2672 45.236 13.7488C45.6504 14.2304 46.1544 14.6 46.748 14.8576C47.3416 15.1152 48.008 15.244 48.7472 15.244Z" fill="#1E1D18"/>
<path d="M40.8008 20.3999H57.6008" stroke="#1E1D18" stroke-width="1.2"/>
<path d="M77.1824 7.1344C77.1824 6.6864 77.1568 6.328 77.1056 6.0592C77.0672 5.7776 76.9776 5.56 76.8368 5.4064C76.7088 5.24 76.5168 5.1312 76.2608 5.08C76.0048 5.016 75.672 4.9712 75.2624 4.9456V4.216H81.0992V4.9456C80.6896 4.9584 80.3568 4.9968 80.1008 5.0608C79.8576 5.1248 79.6656 5.24 79.5248 5.4064C79.3968 5.5728 79.3072 5.8032 79.256 6.0976C79.2176 6.392 79.1984 6.7824 79.1984 7.2688V19.0384C79.1984 20.6512 78.8592 21.88 78.1808 22.7248C77.5024 23.5696 76.5104 23.992 75.2048 23.992C74.3216 23.992 73.6176 23.8192 73.0928 23.4736C72.5552 23.1408 72.2864 22.6928 72.2864 22.1296C72.2864 21.7968 72.376 21.5408 72.5552 21.3616C72.7216 21.1952 72.9584 21.112 73.2656 21.112C73.5088 21.112 73.7072 21.1696 73.8608 21.2848C74.0016 21.4128 74.168 21.656 74.36 22.0144C74.5776 22.424 74.7632 22.6992 74.9168 22.84C75.0832 22.9936 75.2944 23.0704 75.5504 23.0704C76.0752 23.0704 76.4784 22.7888 76.76 22.2256C77.0416 21.6624 77.1824 20.8624 77.1824 19.8256V7.1344Z" fill="#1E1D18"/>
<path d="M112.428 4.216H112.966L113.138 8.632H112.428C112.146 7.5056 111.602 6.6224 110.796 5.9824C109.99 5.3424 109.017 5.0224 107.878 5.0224C107.097 5.0224 106.399 5.176 105.785 5.4832C105.17 5.7904 104.652 6.232 104.23 6.808C103.807 7.384 103.481 8.088 103.25 8.92C103.033 9.752 102.924 10.6928 102.924 11.7424C102.924 13.8032 103.353 15.3904 104.21 16.504C105.068 17.6048 106.31 18.1552 107.935 18.1552C110.406 18.1552 111.993 16.8432 112.697 14.2192H113.484V19H112.812L112.37 17.4832C111.026 18.6224 109.401 19.192 107.494 19.192C106.406 19.192 105.42 19.0192 104.537 18.6736C103.666 18.328 102.918 17.8416 102.29 17.2144C101.676 16.5744 101.196 15.8 100.85 14.8912C100.518 13.9824 100.351 12.9712 100.351 11.8576C100.351 10.6928 100.53 9.6304 100.889 8.6704C101.247 7.7104 101.746 6.8848 102.386 6.1936C103.039 5.5024 103.814 4.9712 104.71 4.6C105.618 4.216 106.617 4.024 107.705 4.024C108.473 4.024 109.196 4.1328 109.874 4.3504C110.553 4.568 111.289 4.92 112.082 5.4064L112.428 4.216Z" fill="#1E1D18"/>
<path d="M136.992 15.3712C136.992 16.0112 137.018 16.5168 137.069 16.888C137.12 17.2592 137.216 17.5472 137.357 17.752C137.51 17.9568 137.722 18.0912 137.99 18.1552C138.272 18.2192 138.637 18.2576 139.085 18.2704V19H132.864V18.2704C133.312 18.2576 133.67 18.2192 133.939 18.1552C134.221 18.0784 134.438 17.944 134.592 17.752C134.746 17.56 134.848 17.2912 134.899 16.9456C134.95 16.5872 134.976 16.1072 134.976 15.5056V7.7104C134.976 7.1728 134.95 6.7312 134.899 6.3856C134.861 6.0272 134.771 5.7456 134.63 5.5408C134.502 5.336 134.31 5.1952 134.054 5.1184C133.798 5.0288 133.466 4.9712 133.056 4.9456V4.216H138.893V4.9456C138.483 4.9584 138.15 5.0096 137.894 5.0992C137.651 5.1888 137.459 5.3424 137.318 5.56C137.19 5.7648 137.101 6.0528 137.05 6.424C137.011 6.7952 136.992 7.2688 136.992 7.8448V15.3712Z" fill="#1E1D18"/>
<path d="M170.03 4.216H170.567L170.74 8.632H170.03C169.748 7.5056 169.204 6.6224 168.398 5.9824C167.591 5.3424 166.618 5.0224 165.479 5.0224C164.698 5.0224 164.001 5.176 163.386 5.4832C162.772 5.7904 162.254 6.232 161.831 6.808C161.409 7.384 161.082 8.088 160.852 8.92C160.634 9.752 160.526 10.6928 160.526 11.7424C160.526 13.8032 160.954 15.3904 161.812 16.504C162.67 17.6048 163.911 18.1552 165.537 18.1552C168.007 18.1552 169.594 16.8432 170.298 14.2192H171.086V19H170.414L169.972 17.4832C168.628 18.6224 167.002 19.192 165.095 19.192C164.007 19.192 163.022 19.0192 162.138 18.6736C161.268 18.328 160.519 17.8416 159.892 17.2144C159.278 16.5744 158.798 15.8 158.452 14.8912C158.119 13.9824 157.953 12.9712 157.953 11.8576C157.953 10.6928 158.132 9.6304 158.49 8.6704C158.849 7.7104 159.348 6.8848 159.988 6.1936C160.641 5.5024 161.415 4.9712 162.311 4.6C163.22 4.216 164.218 4.024 165.306 4.024C166.074 4.024 166.798 4.1328 167.476 4.3504C168.154 4.568 168.89 4.92 169.684 5.4064L170.03 4.216Z" fill="#1E1D18"/>
<path d="M194.594 15.9472C194.594 16.4336 194.619 16.8304 194.67 17.1376C194.722 17.4448 194.824 17.6816 194.978 17.848C195.131 18.0144 195.342 18.1296 195.611 18.1936C195.88 18.2448 196.238 18.2704 196.686 18.2704V19H190.466V18.2704C190.914 18.2704 191.272 18.2448 191.541 18.1936C191.822 18.1296 192.04 18.0208 192.194 17.8672C192.347 17.7008 192.45 17.4768 192.501 17.1952C192.552 16.9008 192.578 16.5296 192.578 16.0816V7.1344C192.578 6.648 192.546 6.264 192.482 5.9824C192.43 5.688 192.328 5.464 192.174 5.3104C192.034 5.1568 191.842 5.0608 191.598 5.0224C191.355 4.9712 191.042 4.9456 190.658 4.9456V4.216H196.494V4.9456C196.11 4.9456 195.797 4.9712 195.554 5.0224C195.31 5.0736 195.112 5.1824 194.958 5.3488C194.818 5.5152 194.722 5.752 194.67 6.0592C194.619 6.3536 194.594 6.7568 194.594 7.2688V12.0112L199.394 6.232C199.65 5.912 199.778 5.6624 199.778 5.4832C199.778 5.1248 199.413 4.9456 198.683 4.9456V4.216H203.31V4.9264C203.054 4.9264 202.83 4.9456 202.638 4.984C202.446 5.0096 202.254 5.0736 202.062 5.176C201.883 5.2784 201.691 5.4256 201.486 5.6176C201.282 5.8096 201.045 6.0592 200.776 6.3664L197.166 10.5328L202.773 17.272C203.093 17.6432 203.394 17.9056 203.675 18.0592C203.957 18.2 204.334 18.2704 204.808 18.2704V19H198.914V18.2704C199.413 18.2704 199.771 18.232 199.989 18.1552C200.206 18.0656 200.315 17.9312 200.315 17.752C200.315 17.6496 200.264 17.5024 200.162 17.3104C200.059 17.1184 199.893 16.8816 199.662 16.6L195.918 11.992L194.594 13.528V15.9472Z" fill="#1E1D18"/>
<path d="M230.768 13.6432H225.642C225.424 14.168 225.238 14.6352 225.085 15.0448C224.931 15.4416 224.803 15.7872 224.701 16.0816C224.611 16.376 224.547 16.6256 224.509 16.8304C224.47 17.0352 224.451 17.2016 224.451 17.3296C224.451 17.688 224.566 17.9376 224.797 18.0784C225.027 18.2064 225.411 18.2704 225.949 18.2704V19H221.283V18.2704C221.578 18.232 221.827 18.1808 222.032 18.1168C222.25 18.0528 222.435 17.9632 222.589 17.848C222.755 17.7328 222.896 17.5856 223.011 17.4064C223.139 17.2144 223.261 16.984 223.376 16.7152L228.368 4.216H229.194L233.552 15.0448C233.846 15.7616 234.102 16.3376 234.32 16.7728C234.538 17.1952 234.749 17.5152 234.954 17.7328C235.158 17.9504 235.376 18.0912 235.606 18.1552C235.85 18.2192 236.138 18.2512 236.47 18.2512V19H230.211V18.2512C230.89 18.2512 231.357 18.1872 231.613 18.0592C231.869 17.9312 231.997 17.72 231.997 17.4256C231.997 17.2976 231.99 17.1824 231.978 17.08C231.965 16.9648 231.939 16.8432 231.901 16.7152C231.875 16.5872 231.83 16.4464 231.766 16.2928C231.715 16.1264 231.645 15.9344 231.555 15.7168L230.768 13.6432ZM226.026 12.6832H230.403L228.272 7.0192L226.026 12.6832Z" fill="#1E1D18"/>
</svg>
