<svg width="58" height="72" viewBox="0 0 58 72" fill="none" xmlns="http://www.w3.org/2000/svg">
<path d="M30.7812 22.5V49.5H37.9062C38.3787 49.5 38.8317 49.7371 39.1658 50.159C39.4998 50.581 39.6875 51.1533 39.6875 51.75C39.6875 52.3467 39.4998 52.919 39.1658 53.341C38.8317 53.7629 38.3787 54 37.9062 54H20.0938C19.6213 54 19.1683 53.7629 18.8342 53.341C18.5002 52.919 18.3125 52.3467 18.3125 51.75C18.3125 51.1533 18.5002 50.581 18.8342 50.159C19.1683 49.7371 19.6213 49.5 20.0938 49.5H27.2188V22.5H18.3125V24.75C18.3125 25.3467 18.1248 25.919 17.7908 26.341C17.4567 26.7629 17.0037 27 16.5312 27C16.0588 27 15.6058 26.7629 15.2717 26.341C14.9377 25.919 14.75 25.3467 14.75 24.75V20.25C14.75 19.6533 14.9377 19.081 15.2717 18.659C15.6058 18.2371 16.0588 18 16.5312 18H41.4688C41.7057 17.9999 41.9403 18.0596 42.1587 18.1755C42.3772 18.2913 42.5752 18.4611 42.7411 18.6748C42.9069 18.8886 43.0374 19.1419 43.1248 19.4201C43.2122 19.6983 43.2547 19.9958 43.25 20.295L43.1752 24.795C43.1657 25.3917 42.969 25.9593 42.6283 26.3728C42.2876 26.7863 41.8307 27.0119 41.3583 27C40.8859 26.9881 40.4366 26.7396 40.1092 26.3092C39.7818 25.8788 39.6032 25.3017 39.6127 24.705L39.6483 22.5H30.7812ZM4.0625 67.5H9.40625C9.87867 67.5 10.3317 67.7371 10.6658 68.159C10.9998 68.581 11.1875 69.1533 11.1875 69.75C11.1875 70.3467 10.9998 70.919 10.6658 71.341C10.3317 71.7629 9.87867 72 9.40625 72H2.28125C1.80883 72 1.35577 71.7629 1.02172 71.341C0.687667 70.919 0.5 70.3467 0.5 69.75V60.768C0.5 60.1713 0.687667 59.599 1.02172 59.177C1.35577 58.7551 1.80883 58.518 2.28125 58.518C2.75367 58.518 3.20673 58.7551 3.54078 59.177C3.87483 59.599 4.0625 60.1713 4.0625 60.768V67.5ZM4.0625 4.5V11.2365C4.0625 11.8332 3.87483 12.4055 3.54078 12.8275C3.20673 13.2494 2.75367 13.4865 2.28125 13.4865C1.80883 13.4865 1.35577 13.2494 1.02172 12.8275C0.687667 12.4055 0.5 11.8332 0.5 11.2365V2.25C0.5 1.65326 0.687667 1.08097 1.02172 0.65901C1.35577 0.237053 1.80883 0 2.28125 0L9.40625 0C9.87867 0 10.3317 0.237053 10.6658 0.65901C10.9998 1.08097 11.1875 1.65326 11.1875 2.25C11.1875 2.84674 10.9998 3.41903 10.6658 3.84099C10.3317 4.26295 9.87867 4.5 9.40625 4.5H4.0625ZM53.9375 4.5H48.6116C48.1391 4.5 47.6861 4.26295 47.352 3.84099C47.018 3.41903 46.8303 2.84674 46.8303 2.25C46.8303 1.65326 47.018 1.08097 47.352 0.65901C47.6861 0.237053 48.1391 0 48.6116 0L55.7188 0C56.1912 0 56.6442 0.237053 56.9783 0.65901C57.3123 1.08097 57.5 1.65326 57.5 2.25V11.25C57.5 11.8467 57.3123 12.419 56.9783 12.841C56.6442 13.2629 56.1912 13.5 55.7188 13.5C55.2463 13.5 54.7933 13.2629 54.4592 12.841C54.1252 12.419 53.9375 11.8467 53.9375 11.25V4.5ZM53.9375 67.5V60.75C53.9375 60.1533 54.1252 59.581 54.4592 59.159C54.7933 58.7371 55.2463 58.5 55.7188 58.5C56.1912 58.5 56.6442 58.7371 56.9783 59.159C57.3123 59.581 57.5 60.1533 57.5 60.75V69.75C57.5 70.3467 57.3123 70.919 56.9783 71.341C56.6442 71.7629 56.1912 72 55.7188 72H48.5938C48.1213 72 47.6683 71.7629 47.3342 71.341C47.0002 70.919 46.8125 70.3467 46.8125 69.75C46.8125 69.1533 47.0002 68.581 47.3342 68.159C47.6683 67.7371 48.1213 67.5 48.5938 67.5H53.9375ZM0.5 29.25C0.5 28.6533 0.687667 28.081 1.02172 27.659C1.35577 27.2371 1.80883 27 2.28125 27C2.75367 27 3.20673 27.2371 3.54078 27.659C3.87483 28.081 4.0625 28.6533 4.0625 29.25V42.75C4.0625 43.3467 3.87483 43.919 3.54078 44.341C3.20673 44.7629 2.75367 45 2.28125 45C1.80883 45 1.35577 44.7629 1.02172 44.341C0.687667 43.919 0.5 43.3467 0.5 42.75V29.25ZM34.3438 0C34.8162 0 35.2692 0.237053 35.6033 0.65901C35.9373 1.08097 36.125 1.65326 36.125 2.25C36.125 2.84674 35.9373 3.41903 35.6033 3.84099C35.2692 4.26295 34.8162 4.5 34.3438 4.5H23.6562C23.1838 4.5 22.7308 4.26295 22.3967 3.84099C22.0627 3.41903 21.875 2.84674 21.875 2.25C21.875 1.65326 22.0627 1.08097 22.3967 0.65901C22.7308 0.237053 23.1838 0 23.6562 0L34.3438 0ZM53.9375 29.25C53.9375 28.6533 54.1252 28.081 54.4592 27.659C54.7933 27.2371 55.2463 27 55.7188 27C56.1912 27 56.6442 27.2371 56.9783 27.659C57.3123 28.081 57.5 28.6533 57.5 29.25V42.75C57.5 43.3467 57.3123 43.919 56.9783 44.341C56.6442 44.7629 56.1912 45 55.7188 45C55.2463 45 54.7933 44.7629 54.4592 44.341C54.1252 43.919 53.9375 43.3467 53.9375 42.75V29.25ZM34.3438 67.5C34.8162 67.5 35.2692 67.7371 35.6033 68.159C35.9373 68.581 36.125 69.1533 36.125 69.75C36.125 70.3467 35.9373 70.919 35.6033 71.341C35.2692 71.7629 34.8162 72 34.3438 72H23.6562C23.1838 72 22.7308 71.7629 22.3967 71.341C22.0627 70.919 21.875 70.3467 21.875 69.75C21.875 69.1533 22.0627 68.581 22.3967 68.159C22.7308 67.7371 23.1838 67.5 23.6562 67.5H34.3438Z" fill="#85BEDB"/>
</svg>
