<svg width="54" height="72" viewBox="0 0 54 72" fill="none" xmlns="http://www.w3.org/2000/svg">
<path d="M0 9V63C0 65.3869 0.948211 67.6761 2.63604 69.364C4.32387 71.0518 6.61305 72 9 72H51.75C52.3467 72 52.919 71.7629 53.341 71.341C53.7629 70.919 54 70.3467 54 69.75C54 69.1533 53.7629 68.581 53.341 68.159C52.919 67.7371 52.3467 67.5 51.75 67.5H9C7.80653 67.5 6.66193 67.0259 5.81802 66.182C4.97411 65.3381 4.5 64.1935 4.5 63H49.5C50.6935 63 51.8381 62.5259 52.682 61.682C53.5259 60.8381 54 59.6935 54 58.5V9C54 6.61305 53.0518 4.32387 51.364 2.63604C49.6761 0.948211 47.3869 0 45 0H9C6.61305 0 4.32387 0.948211 2.63604 2.63604C0.948211 4.32387 0 6.61305 0 9ZM45 4.5C46.1935 4.5 47.3381 4.97411 48.182 5.81802C49.0259 6.66193 49.5 7.80653 49.5 9V58.5H4.5V9C4.5 7.80653 4.97411 6.66193 5.81802 5.81802C6.66193 4.97411 7.80653 4.5 9 4.5H45ZM30.375 16.875C30.375 15.9799 30.0194 15.1214 29.3865 14.4885C28.7535 13.8556 27.8951 13.5 27 13.5C26.1049 13.5 25.2465 13.8556 24.6135 14.4885C23.9806 15.1214 23.625 15.9799 23.625 16.875C23.625 17.7701 23.9806 18.6286 24.6135 19.2615C25.2465 19.8944 26.1049 20.25 27 20.25C27.8951 20.25 28.7535 19.8944 29.3865 19.2615C30.0194 18.6286 30.375 17.7701 30.375 16.875ZM29.25 47.25C29.25 47.8467 29.0129 48.419 28.591 48.841C28.169 49.2629 27.5967 49.5 27 49.5C26.4033 49.5 25.831 49.2629 25.409 48.841C24.9871 48.419 24.75 47.8467 24.75 47.25V29.25C24.75 28.6533 24.9871 28.081 25.409 27.659C25.831 27.2371 26.4033 27 27 27C27.5967 27 28.169 27.2371 28.591 27.659C29.0129 28.081 29.25 28.6533 29.25 29.25V47.25Z" fill="#85BEDB"/>
</svg>
