<svg width="60" height="74" viewBox="0 0 60 74" fill="none" xmlns="http://www.w3.org/2000/svg">
<path fill-rule="evenodd" clip-rule="evenodd" d="M32.5957 14.4835C34.0279 14.4835 35.4014 13.9146 36.4141 12.9019C37.4268 11.8892 37.9957 10.5157 37.9957 9.0835C37.9957 7.65133 37.4268 6.27782 36.4141 5.26512C35.4014 4.25242 34.0279 3.6835 32.5957 3.6835C31.1635 3.6835 29.79 4.25242 28.7773 5.26512C27.7646 6.27782 27.1957 7.65133 27.1957 9.0835C27.1957 10.5157 27.7646 11.8892 28.7773 12.9019C29.79 13.9146 31.1635 14.4835 32.5957 14.4835ZM32.5957 18.0835C34.9827 18.0835 37.2718 17.1353 38.9597 15.4475C40.6475 13.7596 41.5957 11.4704 41.5957 9.0835C41.5957 6.69655 40.6475 4.40736 38.9597 2.71954C37.2718 1.03171 34.9827 0.0834961 32.5957 0.0834961C30.2088 0.0834961 27.9196 1.03171 26.2317 2.71954C24.5439 4.40736 23.5957 6.69655 23.5957 9.0835C23.5957 11.4704 24.5439 13.7596 26.2317 15.4475C27.9196 17.1353 30.2088 18.0835 32.5957 18.0835Z" fill="#85BEDB"/>
<path fill-rule="evenodd" clip-rule="evenodd" d="M20.6921 27.6817C21.5156 27.8385 22.2587 28.2778 22.793 28.9238C23.3273 29.5698 23.6194 30.3821 23.6189 31.2205V68.5165C23.6189 68.9939 23.8085 69.4517 24.1461 69.7893C24.4836 70.1268 24.9415 70.3165 25.4189 70.3165H25.5755C26.0248 70.3165 26.4579 70.1484 26.7897 69.8453C27.1214 69.5422 27.3278 69.126 27.3683 68.6785L29.0189 50.5165C29.0189 49.5617 29.3981 48.646 30.0733 47.9709C30.7484 47.2958 31.6641 46.9165 32.6189 46.9165C33.5736 46.9165 34.4893 47.2958 35.1644 47.9709C35.8396 48.646 36.2189 49.5617 36.2189 50.5165L37.8695 68.6785C37.9099 69.126 38.1163 69.5422 38.448 69.8453C38.7798 70.1484 39.2129 70.3165 39.6623 70.3165H39.8189C40.2962 70.3165 40.7541 70.1268 41.0916 69.7893C41.4292 69.4517 41.6189 68.9939 41.6189 68.5165V31.2871C41.6187 30.449 41.911 29.6372 42.4453 28.9915C42.9796 28.3458 43.7224 27.9068 44.5457 27.7501C47.7065 27.1489 51.0491 26.3155 54.7229 25.2445C54.9498 25.1783 55.1614 25.0681 55.3458 24.9201C55.5301 24.7721 55.6835 24.5892 55.7971 24.382C55.9108 24.1747 55.9825 23.9471 56.0082 23.7121C56.0339 23.4771 56.013 23.2394 55.9469 23.0125C55.8807 22.7856 55.7704 22.5739 55.6224 22.3896C55.4745 22.2052 55.2916 22.0519 55.0844 21.9382C54.8771 21.8246 54.6495 21.7528 54.4145 21.7271C54.1795 21.7015 53.9418 21.7223 53.7149 21.7885C45.3737 24.2185 38.9729 25.3453 32.6261 25.3165C26.2721 25.2877 19.8641 24.1033 11.4995 21.7831C11.2701 21.7147 11.0294 21.6927 10.7915 21.7185C10.5535 21.7442 10.3231 21.8171 10.1137 21.933C9.9043 22.0489 9.7201 22.2053 9.57187 22.3932C9.42365 22.5811 9.31438 22.7967 9.25047 23.0273C9.18656 23.258 9.16928 23.499 9.19965 23.7364C9.23002 23.9738 9.30742 24.2028 9.42733 24.4099C9.54725 24.617 9.70726 24.7981 9.89801 24.9427C10.0888 25.0872 10.3064 25.1923 10.5383 25.2517C14.1977 26.2669 17.5331 27.0805 20.6921 27.6817ZM30.7793 69.9619C30.4633 71.0992 29.7834 72.1017 28.8436 72.8159C27.9038 73.5301 26.7558 73.9167 25.5755 73.9165H25.4189C23.9867 73.9165 22.6132 73.3475 21.6005 72.3349C20.5878 71.3222 20.0189 69.9486 20.0189 68.5165V31.2205C16.7321 30.5941 13.2959 29.7517 9.57526 28.7185C8.87773 28.542 8.2225 28.2278 7.64808 27.7945C7.07366 27.3612 6.59163 26.8175 6.2303 26.1953C5.86896 25.5731 5.63562 24.8849 5.54398 24.1713C5.45234 23.4576 5.50424 22.7328 5.69664 22.0395C5.88904 21.3462 6.21806 20.6983 6.66437 20.134C7.11068 19.5696 7.66527 19.1001 8.29558 18.7531C8.92588 18.406 9.61918 18.1885 10.3347 18.1132C11.0503 18.0378 11.7737 18.1063 12.4625 18.3145C20.6885 20.5951 26.7455 21.6895 32.6423 21.7165C38.5211 21.7417 44.5547 20.7085 52.7087 18.3325C53.3927 18.123 54.1115 18.0516 54.8233 18.1223C55.5351 18.193 56.2258 18.4044 56.8553 18.7443C57.4847 19.0841 58.0404 19.5457 58.49 20.1021C58.9395 20.6585 59.2741 21.2987 59.4742 21.9855C59.6742 22.6723 59.7359 23.392 59.6554 24.1028C59.575 24.8136 59.3542 25.5014 59.0058 26.1261C58.6573 26.7509 58.1882 27.3002 57.6257 27.7421C57.0632 28.184 56.4185 28.5098 55.7291 28.7005C51.9779 29.7949 48.5219 30.6589 45.2189 31.2871V68.5165C45.2189 69.9486 44.6499 71.3222 43.6372 72.3349C42.6245 73.3475 41.251 73.9165 39.8189 73.9165H39.6623C38.3147 73.9166 37.0158 73.413 36.0207 72.5044C35.0255 71.5959 34.406 70.348 34.2839 69.0061L32.6333 50.8441C32.6238 50.7381 32.6189 50.6318 32.6189 50.5255C32.6189 50.6311 32.6141 50.7367 32.6045 50.8423L30.9521 69.0043C30.9234 69.328 30.8656 69.6485 30.7793 69.9619Z" fill="#85BEDB"/>
</svg>
