<svg width="44" height="72" viewBox="0 0 44 72" fill="none" xmlns="http://www.w3.org/2000/svg">
<path d="M5.8176 72C4.1592 72 2.7756 71.4456 1.6668 70.3368C0.557999 69.228 0.0024 67.8444 0 66.186V5.814C0 4.158 0.555599 2.7756 1.6668 1.6668C2.778 0.558 4.1616 0.0024 5.8176 0H37.386C39.042 0 40.4244 0.5556 41.5332 1.6668C42.642 2.778 43.1976 4.1616 43.2 5.8176V66.186C43.2 67.842 42.6456 69.2256 41.5368 70.3368C40.428 71.448 39.0432 72.0024 37.3824 72H5.8176ZM3.6 63V66.186C3.6 66.738 3.8304 67.2456 4.2912 67.7088C4.752 68.172 5.2596 68.4024 5.814 68.4H37.386C37.938 68.4 38.4456 68.1696 38.9088 67.7088C39.372 67.248 39.6024 66.7392 39.6 66.1824V63H3.6ZM3.6 59.4H39.6V12.6H3.6V59.4ZM3.6 9H39.6V5.814C39.6 5.262 39.3696 4.7544 38.9088 4.2912C38.448 3.828 37.9392 3.5976 37.3824 3.6H5.8176C5.2632 3.6 4.7544 3.8304 4.2912 4.2912C3.828 4.752 3.5976 5.2608 3.6 5.8176V9Z" fill="#85BEDB"/>
</svg>
