<svg width="63" height="74" viewBox="0 0 63 74" fill="none" xmlns="http://www.w3.org/2000/svg">
<path d="M61.9454 52.0885C61.7753 51.9577 61.5805 51.8812 61.3792 51.8661C61.1779 51.851 60.9767 51.8978 60.7945 52.0021C59.6681 52.647 58.4217 52.9254 57.1788 52.8096C55.9359 52.6938 54.7396 52.1879 53.7084 51.3419C52.6771 50.496 51.8468 49.3394 51.2996 47.9866C50.7523 46.6339 50.5072 45.1319 50.5884 43.6295C50.6641 42.2221 51.0239 40.8585 51.6363 39.6576C52.2487 38.4568 53.0951 37.4552 54.1017 36.7402C55.1083 36.0253 56.2445 35.6187 57.4111 35.556C58.5777 35.4933 59.7393 35.7764 60.7945 36.3805C60.9763 36.4851 61.177 36.5324 61.378 36.518C61.5789 36.5036 61.7736 36.428 61.9439 36.2982C62.1141 36.1684 62.2544 35.9887 62.3517 35.7758C62.4489 35.5629 62.4999 35.3237 62.5 35.0805V19.7039C62.5 18.5578 62.123 17.4587 61.452 16.6483C60.781 15.8379 59.871 15.3826 58.922 15.3826H46.6973C47.0257 13.8339 47.0838 12.2197 46.8677 10.6425C46.6516 9.0653 46.1662 7.55966 45.4423 6.22128C44.7184 4.88291 43.7719 3.74108 42.6628 2.86841C41.5538 1.99574 40.3066 1.41131 39.0004 1.15228C37.6943 0.893247 36.3578 0.96528 35.0759 1.3638C33.7941 1.76232 32.5949 2.4786 31.5546 3.46712C30.5144 4.45563 29.6558 5.69474 29.0335 7.10568C28.4112 8.51661 28.0387 10.0685 27.9399 11.6627C27.8654 12.9122 27.957 14.168 28.2112 15.3826H15.9865C15.0375 15.3826 14.1275 15.8379 13.4565 16.6483C12.7855 17.4587 12.4085 18.5578 12.4085 19.7039V33.0279C11.1263 32.6313 9.78971 32.5612 8.48382 32.8222C7.17793 33.0831 5.93128 33.6694 4.82313 34.5437C3.71497 35.4179 2.76957 36.5612 2.04701 37.9006C1.32446 39.24 0.840558 40.7464 0.626084 42.3239C0.41161 43.9014 0.471253 45.5156 0.801219 47.0637C1.13119 48.6119 1.72426 50.0602 2.54273 51.3166C3.3612 52.573 4.38716 53.6099 5.55539 54.3615C6.72361 55.1131 8.00855 55.563 9.32849 55.6824C10.3631 55.7742 11.4032 55.6635 12.4085 55.3547V68.6787C12.4085 69.8248 12.7855 70.9239 13.4565 71.7343C14.1275 72.5447 15.0375 73 15.9865 73H58.922C59.871 73 60.781 72.5447 61.452 71.7343C62.123 70.9239 62.5 69.8248 62.5 68.6787V53.3056C62.5 53.0628 62.4492 52.8238 62.3522 52.611C62.2553 52.3982 62.1153 52.2184 61.9454 52.0885ZM60.1147 68.6787C60.1147 69.0607 59.989 69.4271 59.7654 69.6972C59.5417 69.9674 59.2383 70.1191 58.922 70.1191H15.9865C15.6702 70.1191 15.3668 69.9674 15.1432 69.6972C14.9195 69.4271 14.7938 69.0607 14.7938 68.6787V53.3056C14.7939 53.0628 14.743 52.8238 14.6461 52.611C14.5491 52.3982 14.4092 52.2184 14.2392 52.0885C14.0695 51.9584 13.8752 51.8822 13.6745 51.8671C13.4738 51.852 13.2732 51.8984 13.0913 52.0021C12.036 52.607 10.8741 52.8907 9.70709 52.8283C8.54008 52.766 7.40345 52.3596 6.39644 51.6446C5.38943 50.9296 4.54267 49.9277 3.93009 48.7264C3.31751 47.5251 2.95774 46.1609 2.8822 44.7531C2.8007 43.2502 3.04579 41.7477 3.59318 40.3945C4.14057 39.0413 4.97125 37.8843 6.0029 37.0382C7.03455 36.1922 8.23135 35.6864 9.4747 35.571C10.718 35.4557 11.9648 35.7347 13.0913 36.3805C13.273 36.4843 13.4734 36.5309 13.6739 36.5161C13.8745 36.5013 14.0687 36.4256 14.2385 36.2959C14.4083 36.1662 14.5483 35.9868 14.6454 35.7743C14.7425 35.5619 14.7935 35.3232 14.7938 35.0805V19.7039C14.7938 19.3219 14.9195 18.9555 15.1432 18.6854C15.3668 18.4152 15.6702 18.2635 15.9865 18.2635H29.9077C30.1089 18.2637 30.3069 18.2025 30.4832 18.0855C30.6595 17.9685 30.8085 17.7995 30.9162 17.5943C31.0239 17.3891 31.0869 17.1543 31.0993 16.9118C31.1117 16.6693 31.0731 16.4269 30.9871 16.2072C30.4862 14.9327 30.2514 13.5294 30.3029 12.1199C30.3545 10.7105 30.691 9.33768 31.2831 8.12146C31.8751 6.90524 32.7047 5.88256 33.6993 5.14271C34.6939 4.40286 35.8234 3.96835 36.9891 3.87711C38.2335 3.77868 39.4775 4.0747 40.598 4.73581C41.7184 5.39692 42.6764 6.40018 43.3769 7.64616C44.0774 8.89215 44.4962 10.3376 44.5917 11.8392C44.6872 13.3409 44.4562 14.8466 43.9214 16.2072C43.8354 16.4269 43.7968 16.6693 43.8092 16.9118C43.8216 17.1543 43.8846 17.3891 43.9923 17.5943C44.1 17.7995 44.249 17.9685 44.4253 18.0855C44.6016 18.2025 44.7996 18.2637 45.0008 18.2635H58.922C59.2383 18.2635 59.5417 18.4152 59.7654 18.6854C59.989 18.9555 60.1147 19.3219 60.1147 19.7039V33.0279C59.1096 32.7173 58.0697 32.603 57.0347 32.6894C55.7196 32.817 54.4408 33.2725 53.2789 34.0272C52.117 34.782 51.0973 35.8195 50.2843 37.0744C49.4713 38.3292 48.8825 39.774 48.5553 41.3176C48.2281 42.8612 48.1694 44.4699 48.3831 46.0422C48.5968 47.6146 49.0781 49.1163 49.7967 50.4526C50.5153 51.7888 51.4555 52.9306 52.558 53.8057C53.6604 54.6809 54.9012 55.2703 56.2019 55.537C57.5026 55.8036 58.8349 55.7415 60.1147 55.3547V68.6787Z" fill="#85BEDB" stroke="#85BEDB"/>
</svg>
